<?xml version="1.0" standalone="no"?>
<!DOCTYPE svg PUBLIC "-//W3C//DTD SVG 1.1//EN" "http://www.w3.org/Graphics/SVG/1.1/DTD/svg11.dtd" >
<svg xmlns="http://www.w3.org/2000/svg">
<metadata></metadata>
<defs>
<font id="rabiohead_2regular" horiz-adv-x="1155" >
<font-face units-per-em="2048" ascent="1536" descent="-512" />
<missing-glyph horiz-adv-x="571" />
<glyph horiz-adv-x="2048" />
<glyph horiz-adv-x="2048" />
<glyph unicode="&#xd;" horiz-adv-x="2048" />
<glyph unicode=" "  horiz-adv-x="571" />
<glyph unicode="&#x09;" horiz-adv-x="571" />
<glyph unicode="&#xa0;" horiz-adv-x="571" />
<glyph unicode="!" horiz-adv-x="335" d="M94 90q0 42 31 70t74 28t43 -77q0 -91 -80 -91q-68 0 -68 70zM127 547l20 561q-8 16 -8 66q0 96 66 96q42 0 57 -105q0 -8 -16 -102q-15 -89 -15 -100v-435q3 -29 5.5 -56t4 -40t1.5 -16v-45q-15 -15 -37 -15q-61 0 -76 88q-2 10 -2 103z" />
<glyph unicode="&#x22;" horiz-adv-x="630" d="M84 1155q0 115 53 115q64 0 70 -68q-7 -100 -4 -262q0 -15 14 -53q15 -40 12 -51v-78l-5 -3q-5 -3 -13 -6.5t-16 -3.5q-51 0 -86 177q-25 138 -25 233zM367 1098q0 151 73 151q60 0 60 -37q0 -25 -13 -92q-10 -56 -14 -96q-3 -63 39 -143l66 -133h-46q-32 -1 -61 38 t-57 121q-47 130 -47 191z" />
<glyph unicode="#" horiz-adv-x="1320" d="M43 395q47 50 168 74q100 13 190 27q21 14 50 112q32 88 32 123v39q-6 6 -20 6q-50 0 -127 -47t-84 -47q-36 0 -57 37q-17 27 -17 37q0 47 154 94l164 45q35 21 69 231q35 197 86 197q19 0 41.5 -20t22.5 -37q0 -13 -53 -152q-54 -139 -54 -147q0 -38 6 -46t37 -8l137 8 l162 3q58 3 64 57q0 63 2 96q8 107 10 168q9 111 37 172h70q3 -12 22 -67l-74 -383q9 -47 52 -47q5 0 25.5 2t25.5 2q3 0 9 0.5t17 1.5t21 2q38 6 51 6q61 0 61 -74q0 -23 -28 -59q-27 -35 -49 -35q3 0 -45 31q-43 32 -86 32q-75 0 -93 -135l-4 -151l109 -29q72 -18 72 -47 q0 -30 -25 -49t-59 -19q-7 0 -36 5.5t-38 5.5q-53 0 -80 -187q-11 -100 -27 -223h-47q-57 48 -57 80l84 307q-37 43 -236 43q-258 0 -258 -192q0 -18 4.5 -70t4.5 -64q0 -61 -50 -61q-73 0 -73 68q0 12 30 114q33 100 33 117v39q-8 8 -27 8q-14 0 -112 -33 q-102 -30 -113 -30q-79 0 -94 69zM524 567q0 -36 17 -53q30 15 391 12q45 148 45 219q0 59 -25 84h-231q-112 0 -158 -75q-39 -59 -39 -187z" />
<glyph unicode="$" horiz-adv-x="641" d="M53 295q0 16 21.5 41.5t36.5 30.5q58 -40 92 -52q12 18 30 95q19 81 19 120q0 33 -2 39l-103 88q-43 40 -43 88q0 43 84 127l93 91q20 39 20 145q0 319 82 319q20 0 38.5 -21t18.5 -40q0 -18 -26 -109l-27 -106v-113q47 -2 137 -2q81 -9 84 -110q-25 -4 -80 2l-71 6 q-111 0 -111 -219q0 -47 105 -103q106 -54 106 -129q0 -119 -129 -207q-5 -5 -47 -14q-41 -9 -64 -39q-13 -13 -16 -250q-3 -215 -59 -215q-43 0 -74 90q0 10 18 60t21 67q4 101 14 220q-15 18 -102 36q-66 15 -66 64zM242 797l14 -62q27 53 27 62h-41zM319 397 q0 -33 11 -51q30 8 67 37q43 34 43 68q0 27 -33 57.5t-59 26.5q-29 -66 -29 -138z" />
<glyph unicode="%" horiz-adv-x="1136" d="M127 803q0 76 47 147q53 80 59 150q35 35 86 35q69 0 142 -82q76 -82 76 -144q0 -64 -64 -174q-76 -137 -174 -137q-84 0 -133 70q-39 56 -39 135zM231 772q0 -24 17 -45.5t41 -21.5q51 0 100 79q41 71 41 113q0 11 -29 51q-27 41 -41 49l-81 -86q-48 -54 -48 -139z M262 -68q0 40 320 809l135 340q111 252 155 252q19 0 40.5 -21.5t21.5 -41.5l-64 -111q-73 -128 -102 -201l-205 -503q-129 -329 -168 -535q-9 -57 -59 -57q-74 0 -74 69zM715 262q0 103 61 234q76 166 180 166q58 0 111 -87q47 -74 47 -124q0 -63 -96 -215 q-104 -162 -182 -162q-64 0 -99 86q-22 61 -22 102zM819 246q0 -10 6 -27t6 -18h48q55 54 92 129.5t37 132.5q0 51 -52 51q-53 0 -100 -117q-37 -93 -37 -151z" />
<glyph unicode="&#x26;" horiz-adv-x="958" d="M104 336q0 132 39 211q18 40 70 98q39 42 39 80q0 4 -37 88t-37 133q0 91 47 162q63 90 168 90q86 0 201 -53q141 -65 141 -152q0 -54 -119 -155l-159 -129q-37 -40 -37 -54q0 -34 115 -161q118 -127 147 -127q31 0 55 71q19 59 19 76q0 16 -37 100t-37 101 q0 24 17.5 42.5t41.5 18.5q40 0 84 -127q35 -110 35 -139q0 -9 -29 -98q-38 -112 -45 -144l95 -67q75 -54 75 -74q0 -38 -34 -59q-27 -15 -45 -15q-12 0 -84 72q-71 74 -84 74q-17 -10 -50 -33q-67 -43 -112 -60q-74 -32 -154 -32q-118 0 -203 76q-86 77 -86 186zM211 342 q0 -174 182 -174q215 38 215 111q0 16 -104 129q-140 153 -158 180h-41q-94 -155 -94 -246zM295 946q0 -79 33 -158h47q246 156 246 199q0 46 -66 74q-50 20 -109 20q-84 0 -117.5 -30.5t-33.5 -104.5z" />
<glyph unicode="'" horiz-adv-x="286" d="M84 1155q0 115 53 115q64 0 70 -68q-7 -100 -4 -262q0 -15 14 -53q15 -40 12 -51v-78l-5 -3q-5 -3 -13 -6.5t-16 -3.5q-51 0 -86 177q-25 138 -25 233z" />
<glyph unicode="(" horiz-adv-x="460" d="M63 567q0 47 46 244q56 248 120 403q92 213 187 213q54 0 76 -22q2 -2 2 -6q0 -23 -70 -99q-94 -107 -107 -133q-80 -130 -147 -407q-12 -52 -12 -182q0 -171 84 -330q83 -156 192 -191q60 -66 60 -94q0 -16 -23 -67h-80q-149 143 -237 323q-91 190 -91 348z" />
<glyph unicode=")" horiz-adv-x="733" d="M104 1413q0 19 20 43.5t38 24.5q34 0 88 -66l78 -104q169 -194 256 -420q78 -210 78 -391q0 -94 -46 -285q-21 -90 -110 -246q-94 -168 -144 -168q-32 0 -53 27q-14 20 -14 41q0 49 45 94q72 69 109 129q118 190 118 469q0 193 -102 387q-40 76 -121 199q-20 34 -139 143 q-101 94 -101 123z" />
<glyph unicode="*" horiz-adv-x="1015" d="M115 977q0 41 73 41q4 0 17.5 -2t44.5 -6.5t59 -8.5q101 -14 121 -14q16 0 29.5 26t13.5 48q0 12 -27 123q-26 107 -26 123q0 20 15.5 39t33.5 18h66q12 -34 24 -195q9 -125 57 -192q176 -3 261 12q3 1 33 21t40 20q26 0 58 -22.5t32 -46.5q0 -21 -24 -56 q-20 -33 -39 -33q-9 0 -19.5 10.5t-19.5 10.5h-268l-29 -29q9 -50 104 -153q122 -132 136 -158v-49h-76q-47 0 -174 151q-127 154 -131 154q-45 0 -152 -125q-97 -116 -108 -158h-70q0 2 -6 18t-6 27q0 31 96 150l135 156q-35 41 -121 47q-137 12 -139 14q-14 14 -14 39z " />
<glyph unicode="+" horiz-adv-x="983" d="M137 623q0 14 35 49h262q25 28 25 90q0 14 -3 61t-3 60q0 114 98 114q2 0 57 -22v-37q0 -6 -2 -10.5t-4 -5.5t-5 -2l-3 -2q-33 -67 -35 -89q-2 -6 -2 -63v-49q3 -22 29 -45h243q8 0 13.5 3t7 6.5t2.5 6.5l2 4h57q35 -68 35 -88q0 -21 -24 -45l-10 -3q-9 -3 -22.5 -6 t-23.5 -3q-16 0 -110 20q-94 21 -111 21q-57 0 -78 -27q4 -4 25 -119q17 -82 47 -151v-37q-67 -23 -98 -23q-44 0 -47 93q-9 145 -13 172q-21 92 -108 92q-11 0 -66 -6q-14 -1 -31 -2t-26.5 -1.5t-13.5 -0.5q-66 0 -99 45z" />
<glyph unicode="," horiz-adv-x="286" d="M84 -188q0 10 12 51q14 38 17 53q0 144 -4 262q3 68 69 68q51 0 51 -115q0 -101 -24 -233q-35 -177 -84 -177q-14 0 -25 6.5t-12 6.5v78z" />
<glyph unicode="-" horiz-adv-x="811" d="M104 608q0 33 35 54q26 20 56 20q8 0 42 -10t42 -10q44 0 170 14q162 18 251 39q35 -38 35 -64q0 -29 -17 -51t-40 -22q-4 0 -13 0.5t-26 1.5t-33 2q-58 6 -69 6q-4 0 -25 -2t-68 -6.5t-96 -8.5q-161 -14 -186 -14q-18 0 -38 17t-20 34z" />
<glyph unicode="." horiz-adv-x="333" d="M115 236q27 110 69 110q34 0 61 -32t27 -68q0 -29 -32 -64q-30 -35 -45 -35q-34 0 -57 26.5t-23 62.5z" />
<glyph unicode="/" horiz-adv-x="520" d="M84 131q0 -1 5.5 11t22.5 49t33 71q71 154 93 236q36 133 247 815h37q35 -18 35 -58q0 -35 -158 -561q-165 -547 -172 -585q-3 -15 -20 -39q-21 -27 -45 -27q-18 0 -47 33q-31 36 -31 55z" />
<glyph unicode="0" horiz-adv-x="854" d="M84 373q0 195 84 458q114 355 305 355q157 0 252 -215q74 -165 74 -309q0 -210 -99 -386q-122 -223 -354 -223q-144 0 -211 107q-51 80 -51 213zM168 426q0 -108 37 -186q50 -103 141 -103q166 0 275 207q84 170 84 318q0 137 -52 231q-52 107 -196 221 q-105 -58 -199 -301q-90 -232 -90 -387z" />
<glyph unicode="1" horiz-adv-x="585" d="M74 940q40 33 125 109q133 121 166 168q37 54 92 96q18 -12 37.5 -48t19.5 -46q0 9 -2 -7l-18 -186q-21 -220 -21 -526q0 -177 12 -359l7 -7q8 -7 15 -18.5t7 -21.5q0 -63 -68 -63q-71 0 -71 63q0 5 2 24.5t2 24.5v396q0 4 1 22.5t4 62t5 85.5q2 43 5 85.5t4 61t1 21.5v2 v2v2v2v2v3v2v2v2v2v2v2v2v2v3v2v2v2v2v2v2v2v3v2v2v2v2v2v3v2v2v2v2v3v2v2v2v3v8q-3 52 -28 94q-24 -12 -113 -107q-76 -82 -111 -82q-24 0 -48.5 23.5t-24.5 44.5z" />
<glyph unicode="2" horiz-adv-x="808" d="M106 926v80q93 127 182 180t206 53q168 0 168 -231q0 -224 -336 -813q47 -41 221 -56q204 -21 282 -57v-37q-39 -45 -84 -45q-9 0 -79 12q-70 15 -105 15q-112 3 -344 18q-59 3 -59 76q112 170 207 328q96 210 124 268q78 185 78 254q0 164 -100 164q-82 0 -148 -60 q-27 -27 -83 -112q-38 -60 -58 -60q-21 0 -72 23z" />
<glyph unicode="3" horiz-adv-x="954" d="M63 76v53q0 27 48 55l63 37q56 -86 90 -86h21q10 2 24 2q126 0 279 66q200 89 200 233q0 94 -243 137l-297 31l-6 88q309 126 463 352q-12 15 -84 33q-65 15 -84 15q-81 0 -189 -48q-27 -12 -56 -25t-39 -17.5t-11 -4.5q-15 0 -74 33v60q33 39 162 69q117 27 207 27 q41 0 161 -21q123 -22 131 -32q24 -152 -335 -424q138 -59 233 -101q166 -76 166 -168q0 -180 -213 -301q-172 -96 -313 -96q-161 0 -304 33z" />
<glyph unicode="4" horiz-adv-x="878" d="M84 500q0 47 29 295q27 208 47 286h43q26 0 45 -32q24 -30 24 -45q0 -14 -20 -58q-28 -60 -29 -69q-24 -111 -24 -304q148 -65 340 -59q27 18 36 78l9 86q23 167 34 268q38 209 97 209q48 0 51 -68q0 -11 -21 -61q-25 -58 -28 -78q-50 -216 -66 -405q16 -19 31 -19 q24 0 78 54q49 -21 49 -64q0 -48 -59 -78l-88 -43q-3 -88 38 -160q45 -74 45 -92q0 -98 -73 -98q-59 0 -74 96l-18 183q-15 98 -82 98h-281q-43 0 -84 18q-49 21 -49 62z" />
<glyph unicode="5" horiz-adv-x="1052" d="M84 188q0 44 70 105q9 -104 151 -150q92 -28 215 -28q140 0 250 67q133 83 133 221q0 121 -166 185q-113 43 -227 43q-12 0 -55 -6q-54 -4 -56 -4q-31 0 -62.5 19.5t-31.5 37.5q-3 38 12 133t15 143q0 113 -58 162l11 80l321 -20q138 -9 244 -54v-37q-27 -34 -145 -34 q-6 0 -91 10t-90 10q-82 0 -100 -139l-4 -158l239 -61q158 -47 240 -111q109 -83 109 -213q0 -184 -191 -289q-145 -80 -280 -80q-86 0 -248 46q-205 55 -205 122z" />
<glyph unicode="6" horiz-adv-x="724" d="M84 467q0 149 55 344q82 291 228 291q50 0 114 -43q3 -23 -47 -49l-80 -37q-82 -49 -141 -203q-21 -52 -33 -145l-22 -156q3 -4 12.5 -9t13.5 -9q154 127 262 127q114 0 191 -109q68 -92 68 -190q0 -93 -70 -181q-76 -98 -178 -98q-204 0 -299 160q-74 124 -74 307z M221 231q0 -54 98 -94q73 -33 121 -33q71 0 125 72q43 61 43 123q0 40 -22 92q-38 72 -103 72q-42 0 -116 -39q-100 -47 -103 -47q0 -32 -11 -66.5t-21.5 -56.5t-10.5 -23z" />
<glyph unicode="7" horiz-adv-x="907" d="M74 1055q0 82 256 141q191 43 291 43q71 0 71 -57l-61 -494q34 -34 114 -31q91 0 127 -20q-47 -47 -116 -62l-94 -18q-37 -15 -31 -80q0 -126 -4 -262q-3 -116 -9 -129q-1 0 -8.5 -6t-21.5 -6q-78 0 -78 131q0 49 16 164q17 122 17 139q0 30 -11 41q-9 18 -106 18 q-7 0 -72 -10t-71 -10q-32 0 -60 31q-24 24 -24 36q0 78 73 78q6 0 88 -10t86 -10q85 0 107 28q4 104 14 226q3 42 5.5 79t4 53.5t1.5 18.5q0 35 -29 45q-2 2 -39 2q-97 0 -184 -37q-65 -25 -121 -65q-53 -35 -64 -35q-19 0 -43 24t-24 44z" />
<glyph unicode="8" horiz-adv-x="696" d="M53 168q0 82 74 182q43 60 135 148q74 74 74 96q0 7 -72 100q-117 150 -117 267q0 104 119 165q95 50 191 50q105 0 186 -66q82 -64 82 -160q0 -73 -121 -221q-38 -46 -66.5 -79t-41.5 -48t-13 -14q0 -8 52 -84q53 -77 53 -148q0 -144 -158 -215q-109 -47 -225 -47 q-152 0 -152 74zM190 201q2 0 19 -6.5t27 -6.5q63 0 145 48q102 62 102 147q0 41 -23.5 81t-56.5 40t-124 -117q-92 -118 -89 -141v-45zM262 913q0 -46 62 -129q44 -63 90 -102q50 27 131 127q76 98 76 141q0 47 -50 68q-28 -21 -92 -41q-12 9 -19 22.5t-8.5 20t-2 28 t-0.5 23.5q-187 -43 -187 -158z" />
<glyph unicode="9" horiz-adv-x="837" d="M94 860q0 142 123 225q107 70 250 70q19 0 86 -20q73 -21 88 -21q5 0 33.5 4t46.5 4q37 -37 37 -108q0 -25 -6 -43q-27 -108 -27 -350q0 -257 31 -545h-105v295q-2 14 -14 317q-3 53 -25 90l-120 -98q-53 -39 -140 -39q-102 0 -174 57q-84 66 -84 162zM199 860 q0 -115 137 -115q52 0 168 76q128 84 125 150v65q-126 4 -133 4q-87 0 -166 -28q-131 -46 -131 -152z" />
<glyph unicode=":" horiz-adv-x="333" d="M115 236q27 110 69 110q34 0 61 -32t27 -68q0 -29 -32 -64q-30 -35 -45 -35q-34 0 -57 26.5t-23 62.5zM115 645q27 111 69 111q34 0 61 -32.5t27 -68.5q0 -28 -32 -63q-30 -35 -45 -35q-35 0 -57.5 26t-22.5 62z" />
<glyph unicode=";" horiz-adv-x="333" d="M90 -88q0 10 12 51q14 38 17 53q0 145 -4 263q3 67 69 67q52 0 52 -115q0 -95 -25 -233q-35 -176 -84 -176q-14 0 -25 6t-12 6v78zM115 645q27 111 69 111q34 0 61 -32.5t27 -68.5q0 -28 -32 -63q-30 -35 -45 -35q-35 0 -57.5 26t-22.5 62z" />
<glyph unicode="&#x3c;" horiz-adv-x="665" d="M63 604q0 13 209 213q210 201 242 201q39 0 84 -45q-10 -29 -199 -172q-178 -138 -178 -203q0 -43 219 -250q222 -204 222 -227q0 -30 -22 -54t-46 -24q-4 0 -170 172q-231 234 -279 279q-82 79 -82 110z" />
<glyph unicode="=" horiz-adv-x="757" d="M94 735q0 33 35 60l469 45q35 0 70 -35q37 -34 37 -53q0 -18 -20 -32.5t-44 -14.5q-6 0 -78 10q-68 10 -76 10q-106 0 -215 -33q-109 -29 -98 -30q-28 0 -54 24.5t-26 48.5zM137 487q0 43 221 78q179 23 240 23q67 0 94 -35q-8 -25 -33.5 -51t-44.5 -27 q-149 -13 -231 -16q-24 -3 -90 -27q-71 -22 -78 -22q-30 0 -54 25t-24 52z" />
<glyph unicode="&#x3e;" horiz-adv-x="714" d="M115 111l231 266q139 164 168 248q-282 183 -367 346l13 78h80q45 -76 129 -189l157 -104q146 -100 146 -121q0 -24 -228 -297q-227 -275 -256 -275q-25 0 -73 48z" />
<glyph unicode="?" horiz-adv-x="946" d="M74 987q0 173 207 285q158 82 303 82q116 0 217 -58q123 -74 123 -198q0 -136 -136 -275q-68 -71 -251 -200q-2 -10 -2 -82q0 -47 -25 -78q-27 9 -80 80q-51 68 -51 102q0 46 76 86l127 49q76 34 155 142q82 107 82 176q0 86 -104 135q-75 37 -144 37q-110 0 -237 -74 q-146 -87 -146 -203q0 -22 37 -80q28 -46 47 -65v-49h-112l-76 108q-10 23 -10 80zM473 137q0 28 25 61t53 33q21 0 39 -29t18 -50q0 -29 -22.5 -53.5t-48.5 -24.5q-64 0 -64 63z" />
<glyph unicode="@" horiz-adv-x="1353" d="M74 473q0 167 24 258q41 151 262 318q226 170 392 170q214 0 391 -183q170 -176 170 -381q0 -111 -43 -221q-56 -151 -156 -151q-136 0 -291 241q-25 -12 -155 -116q-98 -82 -164 -82q-51 0 -88 42t-37 89q0 102 129 231q73 70 147 96q29 0 105 17q22 13 47 47 q24 35 39 35q52 0 67 -123q23 -188 35 -228q40 -122 150 -122t110 204q0 222 -143 365q-145 145 -350 145q-13 0 -68 -24q-68 -28 -84 -33q-76 -22 -205 -139q-140 -128 -155 -209q-35 -158 -35 -215q0 -241 229 -342q151 -68 375 -68q106 0 158 43l37 -37q-20 -47 -101 -82 q-67 -28 -104 -28q-237 0 -426 94q-262 129 -262 389zM494 477q0 -14 24 -35q79 3 168 95q72 75 102 151l-12 35q-32 6 -151 -76q-131 -94 -131 -170z" />
<glyph unicode="A" horiz-adv-x="1372" d="M74 162q0 42 69 71q77 35 84 48q110 196 277 540q158 327 158 344q0 11 -21 52q-20 41 -20 65q0 40 12 61h43q28 0 119 -198l114 -254q53 -109 158 -305l37 -70q21 -39 49 -63q8 -5 46 -14t44 -13q35 -21 35 -68q0 -30 -27 -51q9 -39 92 -160q84 -122 84 -131 q0 -69 -57 -69q-52 0 -98 102q-58 132 -82 187q-54 100 -135 100q-127 0 -432 -66q-296 -64 -330 -104q-21 -29 -47 -88l-49 -109h-33q-44 0 -90 193zM362 322l676 120v37l-319 561z" />
<glyph unicode="B" horiz-adv-x="1230" d="M74 1202q0 106 252 195q204 73 305 73q128 0 231 -34q156 -52 156 -160q0 -105 -146 -266q-121 -136 -243 -209q0 -9 18 -21q144 0 275 -32q264 -58 264 -197q0 -249 -344 -399q-254 -109 -453 -109q-122 0 -262 20q-12 61 -12 426v334q0 13 -21 189q-20 170 -20 190z M178 1061q0 -17 15 -131q15 -131 18 -185h98q129 0 361 173q243 184 243 331q0 69 -129 113q-103 35 -176 35q-131 0 -264 -80q-166 -102 -166 -256zM201 598q6 -69 35 -342q30 -141 210 -141q148 0 369 114q266 140 266 318q0 76 -221 123q-158 35 -266 35q-107 0 -205 -33 z" />
<glyph unicode="C" horiz-adv-x="1103" d="M94 635q0 140 160 291q131 125 332 217q183 86 280 86q108 0 199 -66q90 -66 90 -166q0 -49 -45 -114h-57q-3 50 -27 159q-15 38 -92 62q-59 20 -98 20q-78 0 -222 -63q-160 -69 -278 -170q-137 -119 -137 -246q0 -235 323 -340q189 -63 402 -63q72 0 145 8l3 -6 q3 -7 6 -16t3 -17q0 -74 -120 -74q-250 0 -500 92q-367 138 -367 406z" />
<glyph unicode="D" horiz-adv-x="1220" d="M94 1108q0 94 193 152q136 43 217 43q182 0 407 -111q275 -139 275 -332q0 -238 -199 -471q-195 -227 -485 -340q-175 -69 -197 -69q-102 0 -102 124q0 2 0.5 9.5t1.5 21.5t2 29q2 50 2 144q0 170 -6 485q-2 83 -27 249q-14 11 -57 27q-25 9 -25 39zM285 1151 q10 -30 10 -86l20 -903q0 -23 16.5 -40.5t35.5 -17.5q209 0 462 244q252 243 252 471q0 175 -209 295q-182 105 -372 105q-74 0 -92 -7q-4 0 -123 -61z" />
<glyph unicode="E" horiz-adv-x="976" d="M104 561q0 51 33 60q57 12 84 36q0 128 -24 365q-6 31 -45 51q-37 21 -37 66q0 32 47 53q40 16 74 16q11 0 51 -12q48 -10 65 -10l410 53l94 -29q57 -20 57 -61q0 -47 -41 -47q-15 0 -59 20q-48 23 -57 23q-120 0 -422 -55q-39 -39 -39 -144q0 -95 -0.5 -128t-1.5 -30 q6 -96 41 -137l575 64q2 0 56 -23v-61q-59 -53 -78 -53q-10 0 -94 20q-94 23 -101 23q-40 0 -172 -27q-162 -30 -205 -64q28 -80 31 -196q0 -106 19 -135q30 -52 149 -52h201q11 0 125 21q109 20 127 20q20 0 41.5 -16.5t21.5 -34.5q0 -49 -45 -61q-6 -2 -65 -2 q-56 0 -86 10l-492 -64q-25 3 -57 35q-28 31 -31 43v25q0 115 -23 373q-8 5 -30 2q-10 -1 -19 -2l-13.5 -1.5t-6.5 -0.5q-24 0 -41 20.5t-17 46.5z" />
<glyph unicode="F" horiz-adv-x="929" d="M74 655q0 14 14 47q18 13 98 52q13 93 13 139q0 67 -6 76q-2 6 -89 71v60q31 19 89 86h43q2 0 17.5 -10t37.5 -20.5t41 -10.5l598 53q18 0 37.5 -24.5t19.5 -45.5q0 -19 -19.5 -43t-37.5 -24q-12 0 -115 20q-108 21 -133 21q-109 0 -223 -21q-118 -24 -166 -59v-268 q45 -39 170 -39q3 0 15.5 1t42 4t57.5 5t57.5 5t41.5 4t15 1q33 0 123 -20q87 -18 109 -25v-39q-30 -18 -103 -18q-53 0 -137 8q-102 10 -127 10q-51 0 -235 -35q-27 0 -27 -129q-1 -44 -1 -86q0 -96 5 -176q5 -82 6 -82v4q0 -53 -26 -65l-64 -19q-35 21 -35 160 q0 60 13 203q6 76 6 119q0 24 -2 37q-12 12 -72 26q-51 15 -51 47z" />
<glyph unicode="G" horiz-adv-x="1212" d="M74 561q0 238 190 465q206 244 461 244q146 0 236 -79.5t90 -219.5q0 -67 -21 -125q-27 -80 -80 -80q-19 0 -38 19.5t-19 39.5q9 17 27 52q26 51 26 110q0 100 -78 154q-62 45 -159 45q-222 0 -385 -217q-146 -196 -146 -398q0 -175 127 -270q112 -80 289 -80 q48 0 145 23q112 27 144 65v41q-147 123 -164 123q-14 0 -129 -37q-112 -37 -127 -37q-6 0 -64 23v70q11 11 35 28q104 11 414 53q268 35 276 35q39 0 72 -33v-38q-36 -33 -68 -33q-2 0 -8.5 0.5t-19 1.5t-25.5 2q-20 2 -36.5 2t-30.5 -2q-38 -3 -76 -12q-6 4 -7 -7 q-1 -4 -1 -12q0 -12 41 -74q43 -58 43 -71q0 -106 -187 -158q-124 -37 -223 -37q-212 0 -354 92q-170 114 -170 332z" />
<glyph unicode="H" horiz-adv-x="1124" d="M94 635q0 13 19 49q21 34 24 47l-10 557q22 25 47 25q35 -27 47 -248l12 -352q140 -51 166 -51q-11 0 1 1q88 9 339 9q49 12 95 12q14 0 37 -2t24 -2q21 0 18 55l-41 320v276q36 45 74 45q62 0 62 -57q0 -14 -21 -113q-20 -90 -20 -108q0 -63 22 -211q23 -158 53 -219 q-26 -79 -26 -209q0 -74 16 -244q0 -4 14.5 -29t14.5 -34q0 -31 -25 -60t-49 -29q-19 0 -59 46q20 76 20 176l-5 72q-5 82 -9 141q-3 56 -37 65q-95 25 -246 25q-206 0 -401 -25q-33 -56 -33 -145q0 -31 10 -129q13 -93 13 -129q0 -89 -33 -148h-70q3 18 0 58v53v448 q0 8 -21.5 32t-21.5 32z" />
<glyph unicode="I" horiz-adv-x="870" d="M104 1087q0 8 35 64l252 49q20 14 43 49q12 21 49 21q8 0 60 -10q57 -11 61 -11q3 0 76 17q69 16 76 16q53 0 53 -80q0 -30 -25 -78h-32q-8 0 -39.5 20.5t-40.5 20.5q-59 0 -113 -28q-12 -99 -12 -324l10 -555q9 -59 47 -59l109 16q138 20 151 21l6 -89q-52 -27 -149 -36 q-144 -16 -168 -21q-62 -13 -158 -47q-100 -33 -116 -33q-38 0 -61 23t-17 59q38 38 108 41q70 6 115 37q43 34 43 203q0 61 -2 104q-2 45 -2 90q0 246 -2 264q-6 180 -39 283l-133 -49q-96 -35 -105 -35q-80 0 -80 57z" />
<glyph unicode="J" horiz-adv-x="1060" d="M53 1063v59q219 25 559 78q16 3 52 25q38 24 51 24q7 0 41 -10t43 -10q3 0 11 0.5t22 1.5t26 2q47 6 60 6q14 0 73 21q64 22 74 22q18 0 44 -18.5t26 -34.5q0 -24 -20 -54t-38 -30q-8 0 -39.5 10t-40.5 10q-70 0 -188 -37q18 -79 109 -315q49 -131 49 -272 q0 -194 -84 -328q-106 -160 -312 -160q-89 0 -254 68q-180 76 -180 147q0 50 15 68q18 21 114 84q4 0 19 -6t18 -6v-37q3 -9 -24 -43t-27 -49q0 -41 135 -97q110 -45 137 -45h84q142 0 213 164q51 111 51 236q0 148 -88 358q-83 208 -143 229l-514 -84h-5q-21 0 -69 23z" />
<glyph unicode="K" horiz-adv-x="1009" d="M117 741v506h102q-16 -56 -16 -117q0 -50 8 -118q8 -73 8 -123l5 -9q4 -8 18 -8q94 0 342 175q234 166 260 213q32 -10 100 -56q0 -3 -6.5 -26.5t-7.5 -30.5l-373 -217q-262 -151 -262 -164q0 -17 268 -229q423 -334 455 -361v-70q-46 -43 -68 -43q-8 0 -14 2t-8 3t-6 6 l-4 4q-9 61 -297 305q-284 248 -353 248q-36 0 -39 -49q1 11 2 -3v-65q0 -177 37 -301q37 -121 37 -129q0 -31 -21.5 -57.5t-41.5 -26.5q-19 0 -40 15t-22 32q-12 102 -33 621q0 4 -15 34t-15 39z" />
<glyph unicode="L" horiz-adv-x="862" d="M127 162q0 2 10 80q13 76 13 100q5 121 16 250q12 163 12 170q0 126 -10 228t-20 152l-11 50q0 24 21 40.5t47 16.5q59 0 59 -362q0 -130 -8 -367q-4 -123 -4 -207q0 -56 2 -96q51 -39 82 -39q4 0 32 2t92.5 6.5t133.5 8.5q66 4 133 8.5t93.5 6t29.5 1.5q30 0 52 -24 t22 -46q0 -57 -52 -57q-4 0 -18.5 1t-49 4t-65.5 5q-130 10 -131 10q-21 0 -188 -20q-176 -21 -189 -21q-104 0 -104 99z" />
<glyph unicode="M" horiz-adv-x="1353" d="M63 1102q0 35 25 70.5t49 35.5q46 0 70 -37q-2 -8 -2 -16q0 -43 37 -115q42 -77 86 -129q91 -105 225 -233q137 -131 156 -131q37 0 147 192q116 209 150 267q58 99 79 196q9 4 19 8.5t14 6.5t6 2q21 0 58 -29q30 -174 75 -658q46 -467 46 -569q0 -78 -68 -78 q-45 0 -57 76q-2 10 -2 98v385q0 268 -60 523q-14 -16 -207 -320q-155 -248 -211 -248q-15 0 -231 222l-231 239q-15 15 -15 -10v-594q0 -2 10 -104q2 -25 5 -51t4.5 -38.5t1.5 -15.5q0 -43 -80 -90q-45 33 -45 98q0 14 10 86l10 447q0 21 -8 141q-6 135 -6 191 q-3 83 -31 122q-29 44 -29 60z" />
<glyph unicode="N" horiz-adv-x="1341" d="M74 1135q0 35 32.5 59.5t71.5 24.5q38 0 62 -17q66 -178 317 -444l477 -475q45 23 70 120l33 160q31 126 39 221q5 45 14 156q16 121 16 172q0 17 -2 27q-14 74 -14 84q0 59 55 59q28 0 53 -32t25 -64q0 -63 -86 -561q-95 -541 -139 -541q-14 0 -344 348 q-418 436 -527 545l88 -893q0 -15 -34 -84q-103 15 -103 55q0 8 5 25.5t5 19.5v260q0 225 -57 510q-32 160 -44.5 219t-12.5 46z" />
<glyph unicode="O" horiz-adv-x="1247" d="M127 494q0 85 66 274q77 220 184 356q132 179 274 179q106 0 215 -80q8 -13 8 -47v-3v-2v-3v-2v-3v-3v-3v-2v-3v-3v-3v-3v-3v-3v-3v-4v-3v-7q159 -144 244 -348q68 -174 68 -326q0 -226 -152 -335q-130 -91 -342 -91q-225 0 -385 115q-180 131 -180 359zM221 547 q0 -432 471 -432q146 0 262 73q148 92 148 263q0 72 -45 217q-49 163 -96 223q-33 39 -152 143q-93 78 -129 152q-8 1 -17 1q-148 0 -298 -247q-144 -237 -144 -393z" />
<glyph unicode="P" horiz-adv-x="1007" d="M94 1077q0 76 137 119q95 33 172 33q129 0 336 -80q269 -106 269 -246q0 -164 -179 -299q-134 -100 -344 -180l-223 -86v-303q0 -14 12.5 -23t12.5 -10q0 -14 -70 -96q-22 7 -35 16q-12 7 -17.5 19t-6 20t-0.5 27q0 37 8 100t8 96q0 30 -10 115t-10 117v524q0 20 -31 74 q-29 56 -29 63zM252 850q0 -272 33 -387q65 3 202 55q166 63 277 148q139 112 139 231q0 105 -223 184q-174 64 -264 64q-129 0 -156 -96q-8 -27 -8 -199z" />
<glyph unicode="Q" horiz-adv-x="1179" d="M63 426q0 283 127 496q144 235 402 299q16 5 49 20q43 19 51 19q110 0 266 -193q132 -167 140 -211q37 -164 37 -201q0 -136 -74 -260q-51 -82 -137 -162q-74 -71 -74 -75q0 -59 61 -86q33 -11 76 -21v-69q-53 -56 -90 -56q-31 0 -72 84t-84 84q1 0 -1.5 -1l-10 -4 t-16 -6.5t-24.5 -9.5l-32 -12q-89 -30 -194 -30q-400 0 -400 395zM147 473q0 -369 299 -369q69 0 226 66v37l-103 155q-75 118 -75 168q0 24 18 58h29q51 -19 63 -35l29 -76q35 -85 127 -235q86 15 188 159q103 145 103 250q0 86 -80 246q-100 195 -209 195q-9 0 -27 -20.5 t-26 -20.5q-14 0 -64 36q-49 37 -61 37q-200 0 -332 -276q-105 -212 -105 -375z" />
<glyph unicode="R" horiz-adv-x="1085" d="M63 1055q0 117 267 188q183 49 305 49q137 0 246 -59q137 -76 137 -215q0 -163 -199 -307q-162 -116 -346 -160q53 -53 213 -148q157 -94 234 -167q5 -5 22.5 -23t25.5 -26t22 -19.5t24.5 -16t19.5 -4.5q22 0 33 11q25 -80 25 -95q0 -73 -62 -73q-123 117 -258 229 q-295 240 -491 295q-19 -16 -19 -74l51 -428l-9 -3q-10 -3 -22 -6t-20 -3q-70 0 -88 477l-4 225q-3 123 -27 259q-3 19 -43 40q-37 21 -37 54zM242 930q0 -163 8 -187q24 -92 139 -92q156 0 322 90q202 108 202 277q0 80 -86 139q-74 51 -159 51q-103 0 -217 -24 q-142 -30 -185 -82q-24 -30 -24 -172z" />
<glyph unicode="S" d="M74 221q0 90 123 105q3 -6 3 -39q0 -20 -1 -49q159 -123 379 -123q124 0 253 57q177 77 177 207q0 87 -244 192q-97 38 -277 97q-159 53 -208 80q-111 62 -111 161q0 144 233 258q194 93 304 93q84 0 163 -48q88 -55 88 -141q0 -46 -16 -102q-21 -66 -53 -66 q-8 0 -28.5 6t-27.5 6q11 115 11 125q0 63 -32.5 89t-121.5 26q-84 0 -225 -63q-180 -79 -180 -172q0 -99 215 -170l401 -129q215 -99 215 -265q0 -149 -215 -254q-168 -82 -295 -82q-88 0 -280 52q-250 68 -250 149z" />
<glyph unicode="T" horiz-adv-x="901" d="M94 1106v47q24 24 35 27q29 6 369 26q376 23 399 23q27 0 48.5 -17.5t21.5 -40.5q0 -33 -26 -61.5t-48 -28.5q-8 0 -15 3.5t-10 6.5t-8 10.5t-6 8.5q-103 25 -192 25q-125 0 -125 -205q0 -222 57 -494t57 -284q0 -120 -47 -132q-61 15 -67 89q-6 73 -9 147 q-88 486 -88 791v59q-15 18 -78 18q-8 0 -104 -22q-92 -21 -106 -21q-6 0 -58 25z" />
<glyph unicode="U" d="M127 731v399q24 56 72 56q63 0 63 -68q0 -19 -20 -162q-21 -150 -21 -163q0 -189 74 -381q109 -275 313 -275q212 0 320 307q69 201 69 422q0 12 -30 117q-31 109 -31 115v45q49 22 61 22q39 0 66 -65q18 -50 18 -86v-264q0 -224 -110 -443q-138 -276 -363 -276 q-223 0 -368 280q-113 219 -113 420z" />
<glyph unicode="V" d="M137 1040q0 10 6.5 30t6.5 22q1 0 79 10l166 -467q95 -243 232 -436q78 41 209 379q119 308 157 522q20 35 64 55q69 -69 88 -111q-31 -22 -72 -75l-215 -553q-159 -396 -207 -396q-63 0 -196 259q-91 178 -217 485q-101 252 -101 276z" />
<glyph unicode="W" horiz-adv-x="1421" d="M74 1139q0 44 67 47q76 0 76 -54l-4 -151q0 -476 139 -739q75 65 150 311l92 346q11 35 11 90q0 13 -1 27q-1 16 -1 32q0 56 9 93q5 19 31 43t45 24q53 0 74 -67l141 -498q90 -289 238 -412q56 21 86 211q26 147 26 346q0 100 -8 152q-1 7 -9.5 47.5t-8.5 50.5 q0 43 55 43q22 0 53 -18t31 -39q0 -8 -14.5 -41.5t-14.5 -42.5l-4 -229q-9 -262 -41 -402q-50 -215 -141 -215q-35 0 -115 86q-90 101 -178 324l-141 389q-12 3 -23 -8q-55 -153 -114 -383q-40 -155 -72 -232q-45 -96 -154 -217h-3q-59 0 -128 213q-19 59 -82 391 q-67 363 -67 482z" />
<glyph unicode="X" horiz-adv-x="1067" d="M74 1171q0 58 67 58q25 0 230 -246l213 -258q28 28 161 258q120 215 138 215q30 0 57 -24.5t27 -45.5q0 1 -16.5 -22.5t-53.5 -79t-84 -127.5q-151 -236 -151 -264q0 -47 141 -211q141 -160 203 -176q45 -51 45 -107q0 -12 -17 -43q-21 -35 -41 -35q-11 0 -32.5 7.5 t-22.5 7.5q-63 113 -324 446q-97 -75 -288 -413q1 -2 21 -20.5t20 -27.5q0 -20 -29.5 -46.5t-50.5 -26.5h-107q0 2 -6 24.5t-6 32.5q0 27 184 275q185 250 185 286q0 22 -134 183q-60 71 -204 227q-125 137 -125 153z" />
<glyph unicode="Y" horiz-adv-x="1173" d="M94 1155q0 25 24 44.5t50 19.5q33 0 49 -25q30 -100 156 -305q164 -268 268 -268q55 0 240 299t206 299q22 0 40 -32t18 -59q0 -3 -113 -165q-128 -185 -166 -256q-4 -8 -39 -43q-38 -38 -47 -72q-35 -110 -35 -303q0 -85 21 -150q20 -60 22 -55q0 -64 -69 -64 q-59 0 -74 201l-8 244q-109 101 -180 172q-114 118 -170 194q-46 64 -123 189q-70 116 -70 135z" />
<glyph unicode="Z" horiz-adv-x="950" d="M104 78q0 4 129 174q206 267 216 280q116 158 206 349q107 218 144 278q-29 26 -58 29l-16 -2h-47q-34 0 -219 -37q-56 -11 -100.5 -19.5t-62.5 -12t-17 -3.5q-31 0 -55.5 16.5t-24.5 40.5q0 12 16 31q24 30 51 33q70 13 340 41q252 27 287 27q18 0 35.5 -23.5 t17.5 -44.5q0 -90 -309 -563q-214 -329 -354 -520q28 -36 219 -60q150 -18 243 -18q2 0 13 0.5t33.5 1.5t46.5 2q82 6 96 6q74 0 74 -57q0 -70 -68 -70l-678 53q-8 0 -41.5 -10t-42.5 -10q-22 0 -49 43q-25 39 -25 45z" />
<glyph unicode="[" horiz-adv-x="499" d="M84 -74l31 1424q-7 30 28 51q29 16 45 16q58 0 185 -26q126 -27 141 -39q-21 -68 -106 -68q-9 0 -44.5 2t-44.5 2q-36 0 -59 -10q-29 -13 -47 -74q-14 -46 -14 -94v-307q0 -4 -1.5 -22.5t-4 -58.5t-5.5 -83q-2 -38 -5 -80.5t-4 -60t-1 -21.5q0 -362 35 -481 q9 -27 133 -27q9 0 47.5 5.5t46.5 5.5q48 0 95 -35v-47q-117 -48 -318 -39q-9 1 -36 -8t-34 -9q-38 0 -53 41q-10 23 -10 43z" />
<glyph unicode="]" horiz-adv-x="630" d="M0 1448v65q35 25 233 84q189 56 228 56q22 0 55 -45q33 -42 33 -72q0 -17 -27 -260q-26 -231 -26 -256q0 -44 20 -377q27 -387 51 -633q3 -33 27 -125q24 -94 24 -108q0 -41 -210 -111q-189 -61 -236 -61q-34 0 -68 31t-34 57q0 40 42 72t87 32q13 0 24.5 -7t24.5 -7 q100 0 155 61q50 56 50 146l-68 940v397q0 3 8 45t8 58q0 57 -57 57q-19 0 -129 -49q-109 -47 -125 -47q-30 0 -90 57z" />
<glyph unicode="`" horiz-adv-x="378" d="M63 1690q-37 34 9 86q34 39 98 -13q51 -43 113 -127q75 -110 41 -149q-6 -7 -13.5 -12t-12.5 -8l-5 -3l-43 37q-4 3 -20 34.5t-19 35.5q-69 58 -148 119z" />
<glyph unicode="a" horiz-adv-x="874" d="M84 279q0 100 295 413q33 33 70 41q53 12 59 15q2 2 14 15.5t24.5 24.5t20.5 11q15 0 68 -35q0 -41 8 -96q22 -83 84 -252q11 -33 59 -105q43 -64 43 -75q0 -27 -20 -50q-24 -30 -59 -39q-41 56 -93 181l-75 176l-176 -223q-90 -93 -201 -93q-34 0 -76 25q-45 26 -45 66z M221 305h55q62 0 156 150q82 137 82 176q0 20 -37 20q-55 -39 -145 -141q-111 -126 -111 -170v-35z" />
<glyph unicode="b" horiz-adv-x="839" d="M115 319q0 11 16 80q16 72 16 80v662q24 24 52 24q61 0 61 -73q0 -25 -10 -70l-8 -39v-428q-6 -6 6 -8h10q34 22 102 67q106 68 177 68q229 0 229 -199q0 -166 -143 -282q-131 -107 -291 -107q-82 0 -185 35l-3 5q-2 5 -4.5 12.5t-2.5 15.5q0 23 33 43q29 16 41 16 q11 0 61 -12q58 -10 64 -10q131 0 223 71q103 80 103 213q0 105 -111 105q-93 0 -180 -84q-46 -46 -117 -158q-53 -84 -76 -84q-63 0 -63 57z" />
<glyph unicode="c" horiz-adv-x="741" d="M74 477q0 104 174 217q156 105 252 105q36 0 108 -29q84 -35 84 -82q0 -22 -31.5 -44.5t-56.5 -22.5q-1 0 -65 34q-64 37 -66 37q-58 0 -168 -78q-117 -82 -117 -147q0 -132 244 -203q151 -45 250 -45v-49q-41 -23 -78 -23q-119 0 -289 66q-241 94 -241 264z" />
<glyph unicode="d" horiz-adv-x="770" d="M94 305q0 94 76 182q79 91 176 91q88 0 152 -31q26 17 26 55q0 8 -5 38.5t-5 37.5v264q25 25 43 25q49 0 70 -47q-6 -100 -6 -181q0 -113 12 -186q9 -44 43 -125q29 -72 29 -129q0 -131 -74 -131q-44 0 -53 80q-15 112 -35 145q-47 80 -176 80q-86 0 -129 -76 q-27 -53 -27 -118q0 -100 86 -150q60 -34 201 -55q7 7 46 7q13 0 29 -1q71 -3 78 -10v-35q-30 -17 -71 -29q-56 -16 -70 -16q-9 0 -53.5 5t-53.5 5q-113 0 -208 86q-101 91 -101 219z" />
<glyph unicode="e" horiz-adv-x="636" d="M63 430q0 26 19 45q32 32 41 47l53 125q20 45 96 45q85 0 172 -96q80 -89 80 -160q0 -28 -23.5 -64t-47.5 -36q-2 0 -10 4.5t-24 11t-37.5 12.5t-56 10.5t-73.5 4.5q-52 0 -62 -19q-2 -2 -2 -45q0 -73 33 -135q44 -86 125 -86q61 0 156 31l92 31h45q-3 -72 -127 -115 q-95 -31 -170 -31q-72 0 -137 39q-94 58 -109 166q1 15 1 33q0 54 -7 133q-1 7 -14 23t-13 26zM221 510q0 -24 12 -27q37 -7 72 -7q44 0 84 11q-63 91 -94 91q-19 0 -46.5 -27.5t-27.5 -40.5z" />
<glyph unicode="f" horiz-adv-x="774" d="M63 436q0 71 174 71q36 0 80 -3q7 24 7 96v131q0 467 196 467q75 0 164 -59q90 -60 125 -146v-35l-37 -34l-123 116q-44 41 -102 41q-100 0 -127 -155q-10 -58 -10 -197q0 -34 -2 -59v-52q0 -79 32 -104q42 -31 168 -31q78 0 82 -4l15 -22q-21 -37 -111 -37q-9 0 -42.5 5 t-41.5 5q-24 0 -47 -12t-23 -25q0 -40 54 -227q17 -59 29 -100t18 -59.5t6 -16.5q0 -23 -24.5 -48.5t-45.5 -25.5q-47 0 -84 252t-78 252q-11 0 -90 -27q-77 -26 -94 -26q-29 0 -49 26q-19 22 -19 43z" />
<glyph unicode="g" horiz-adv-x="673" d="M63 303q0 118 130 236q121 112 233 112q31 0 98 -33q70 -30 84 -47q-33 -36 -57 -36q-8 0 -37 10t-37 10q-82 0 -188 -68q-121 -77 -121 -174q0 -71 68 -71q82 0 126 71q11 19 52 138q27 73 63 73q51 0 78 -166q23 -138 23 -223q0 -147 -91 -334q-114 -221 -282 -221 q-33 0 -74 27q-47 35 -47 67q0 27 45 95q20 -8 45 -45q26 -39 41 -39q124 0 207 200q61 149 61 250q0 11 -6 51q-4 54 -4 58q6 6 -6 8h-10q3 0 -74 -59q-76 -58 -152 -58q-71 0 -119.5 52t-48.5 116z" />
<glyph unicode="h" horiz-adv-x="743" d="M137 473q0 178 56 367q17 -8 79 -43q-6 -73 -30 -238q-21 -150 -21 -160q0 -11 31 -202q1 -8 16 -9q4 0 111 84q110 84 172 84q79 0 137 -116q28 -58 53 -160q26 -103 56 -162l-9 -6q-10 -5 -22.5 -10.5t-20.5 -5.5q-57 0 -92 86l-45 161q-27 88 -78 88q-33 0 -157 -106 q-126 -105 -168 -105q-31 0 -58 89z" />
<glyph unicode="i" horiz-adv-x="387" d="M43 940q0 30 43 51q42 17 76 17q8 0 20 -6t21 -12.5t26 -20t23 -17.5q-13 -19 -68 -49q-54 -31 -63 -31q-18 0 -49 25q-29 29 -29 43zM168 403q0 134 68 134q69 0 69 -91q0 -8 -9 -41.5t-9 -42.5q-2 -52 -1.5 -100t1.5 -92q2 -19 3.5 -36.5t2 -28t1.5 -18.5t1 -11t0 -2 q0 -39 -35 -74q-14 0 -35 20t-22 37q-35 234 -35 346z" />
<glyph unicode="j" horiz-adv-x="346" d="M-2 -440q4 1 25 14l38 -27q33 -26 48 -26q87 0 122 145q19 81 19 170q0 180 -39 340q-23 102 -70 232q-39 104 -39 143q0 19 15.5 40t32.5 21q18 0 44 -20t31 -35q7 -74 37 -264q72 -348 72 -488q0 -147 -49 -254q-62 -135 -183 -135q-55 0 -74 26.5t-30 117.5zM72 944 q0 47 63 47q25 0 49 -12q33 -14 33 -45v-68l-9 -3q-10 -3 -24 -6t-24 -3q-88 0 -88 90z" />
<glyph unicode="k" horiz-adv-x="686" d="M63 752q0 120 64 120q48 0 68 -36q-15 -77 -15 -160q0 -59 8 -152q7 -76 11 -168q9 0 26 -20q48 58 148 145q132 117 178 117q47 0 47 -74q0 -9 -74 -127q-71 -118 -71 -145q0 -43 63 -115q66 -75 121 -92q29 -3 98 -25v-28q-45 -45 -67 -45q-110 0 -224 123 q-106 115 -106 210v5q-47 -6 -68 -86q-44 -144 -51 -156h-72q-21 95 -36 285q-18 280 -21 295q-5 30 -14 65q-13 54 -13 64z" />
<glyph unicode="l" horiz-adv-x="342" d="M94 846q0 121 58 121q24 0 51.5 -22t27.5 -36q0 -7 -14 -45q-29 -50 -29 -155q0 -144 29 -299q16 -100 49 -201q29 -95 29 -98q0 -21 -37 -58l-76 33q-34 146 -61 387q-27 228 -27 373z" />
<glyph unicode="m" horiz-adv-x="1083" d="M94 670q45 45 68 45q55 0 55 -97q0 -31 -10 -96q-8 -52 -8 -63l16 -19l86 160q77 135 119 135q46 0 84 -123l49 -161q15 12 123 147q89 112 162 115q34 -43 114 -281q78 -231 76 -258v-45q-11 -14 -41 -14q-58 0 -92 118q-15 71 -27 138q-13 61 -57 176h-27 q-30 0 -110 -133l-99 -162h-69q-25 79 -103 295q-30 -20 -118 -191q-83 -157 -117 -157q-74 0 -74 471z" />
<glyph unicode="n" horiz-adv-x="741" d="M74 514q0 12 3 22t12.5 20t13.5 14t20 15t18 13q56 -24 56 -98v-35q-2 -14 -2 -35q0 -39 12 -63l121 141q84 97 151 100q45 -42 150 -266q96 -209 96 -231v-56q-24 -24 -43 -24q-39 0 -115 180q-85 204 -121 252q-77 -53 -147 -172q-94 -164 -104 -176q-31 14 -76 37 q-3 60 -25 213q-20 137 -20 149z" />
<glyph unicode="o" horiz-adv-x="647" d="M63 362q0 115 76 234q89 139 207 139q107 0 166 -96q45 -74 45 -162q0 -132 -92 -227q-92 -92 -223 -92q-179 0 -179 204zM158 305q49 -43 90 -43q92 0 151 86q54 79 54 166q0 94 -101 94q-89 0 -153 -125q-44 -88 -44 -148q0 -16 3 -30z" />
<glyph unicode="p" horiz-adv-x="743" d="M53 94q0 18 27 56q24 36 24 85v11q-8 151 -8 350q43 7 195 51q125 35 135 35q225 0 225 -238q0 -178 -202 -325q-9 -8 -103 -47q-82 -33 -135 -60q-1 -13 -1 -27q0 -55 9 -137q12 -132 12 -170q0 -50 -12 -77h-49q-28 9 -43 163q-8 164 -14 248q-60 66 -60 82zM199 276 q0 -115 26 -141q131 36 230 135q102 102 102 201q0 37 -36.5 65.5t-90.5 28.5q-231 0 -231 -289z" />
<glyph unicode="q" horiz-adv-x="757" d="M53 297q0 123 117 215q103 80 197 80q4 0 18.5 -2.5t52 -9t70.5 -11.5q1 4 5.5 18t7 19.5t7.5 17.5t10 17.5t12.5 12t17 9.5t20.5 3q36 0 57 -35q17 -27 17 -39q0 -14 -21 -72q-19 -53 -23 -69v-336q17 -20 64 -23q60 -3 78 -10q39 -14 39 -68q0 -18 -18 -35.5t-36 -17.5 q-8 0 -33.5 10.5t-33.5 10.5q-57 0 -57 -37l6 -68q4 -85 4 -194l31 -125q0 -60 -64 -60q-70 0 -70 68l9 55v301q-23 29 -43 29q-11 0 -138 -47q-124 -47 -135 -47q-33 0 -53.5 20.5t-20.5 46.5q0 33 172 88q205 63 218 72v131q-3 82 -19 125q-22 -18 -135 -143 q-79 -88 -147 -88q-85 0 -138 65q-45 54 -45 123zM158 281q0 -23 21.5 -40.5t45.5 -17.5q67 0 156 111l113 158q-10 10 -13 24q-74 -3 -178 -55q-145 -74 -145 -180z" />
<glyph unicode="r" horiz-adv-x="581" d="M53 551q0 22 58 80q55 -38 65 -62q2 -6 2 -69l8 -17q16 8 127 119q93 90 144 90q22 0 67 -45v-37q-73 -18 -162 -104q-86 -80 -108 -166q-20 -85 -27 -158q-3 -35 -43 -35q-64 0 -104 181q-27 129 -27 223z" />
<glyph unicode="s" horiz-adv-x="585" d="M94 88q18 43 45 70q6 0 29.5 -10.5t36.5 -10.5q38 0 90 37q61 43 61 94q0 36 -114 115q-124 87 -133 102q-15 24 -15 52q0 49 160 120q145 68 192 68q32 0 91 -59q-44 -24 -144 -70q-91 -39 -141 -68q13 -23 135 -127q96 -84 96 -133q0 -110 -104 -174q-80 -51 -168 -51 q-78 0 -117 45z" />
<glyph unicode="t" horiz-adv-x="690" d="M53 467q0 20 21.5 45t40.5 25q11 0 55 -13q48 -10 55 -10q71 0 86 12t15 78v303q0 71 14 142q21 127 70 127q45 0 63 -89q0 -20 -33 -143q-30 -126 -30 -139v-262q46 -17 106 -25l113 -16v-39q-67 -13 -219 -60v-66q0 -157 12 -226l16 -45q15 -30 15 -50q0 -69 -60 -69 q-76 0 -76 293q0 12 5 139q-19 31 -50 31q-4 0 -12 -1.5t-24.5 -4.5t-30.5 -5q-62 -10 -68 -10q-32 0 -58 23.5t-26 54.5z" />
<glyph unicode="u" horiz-adv-x="780" d="M74 487q0 78 2 88q12 76 65 76q20 0 43 -33q27 -34 27 -40q0 -8 -23 -62q-20 -44 -20 -59q0 -44 31 -111q38 -74 80 -74q67 0 143 168q58 152 76 195q37 16 53 16q47 0 65 -57q9 -35 17 -121q9 -101 18 -149q11 -38 66 -138q49 -82 49 -96v-57q-1 0 -17 -6.5t-30 -6.5 q-66 0 -125 179q-30 93 -45 190q-4 0 -18.5 5t-18.5 5q-139 -262 -217 -262q-109 0 -174 148q-47 109 -47 202z" />
<glyph unicode="v" horiz-adv-x="663" d="M63 594q0 30 27 39l53 18q30 -45 50 -149q21 -106 75 -176h31q31 49 127 239q77 157 125 180q47 -21 47 -63q0 -46 -131 -281q-138 -243 -184 -243q-63 0 -146 207q-74 183 -74 229z" />
<glyph unicode="w" horiz-adv-x="966" d="M53 520q0 225 94 225q20 0 42 -17t22 -36q0 -14 -27 -96q-26 -79 -26 -96q0 -51 16 -97q20 -57 62 -57q65 0 129 174q49 133 49 198q0 13 -2 23q27 47 65 47q19 0 46.5 -25t29.5 -42q3 -13 -10 -62q-7 -33 -7 -53q0 -7 1 -12q17 -129 22 -150q27 -95 86 -139 q107 91 107 260v68q0 134 82 186q49 0 49 -37q0 -8 -14.5 -26.5t-14.5 -26.5q0 -27 8 -84q7 -44 7 -69q0 -8 -1 -15q-26 -176 -86 -317q-34 -76 -110 -76q-87 0 -140 92q-12 25 -37 82.5t-40 87.5q-10 -7 -86 -129q-65 -102 -121 -102q-98 0 -154 141q-41 103 -41 180z" />
<glyph unicode="x" horiz-adv-x="655" d="M74 709q0 32 20 55.5t47 23.5q24 0 90 -96l80 -125h29l98 150q76 102 137 102l21 -31q12 -15 12 -32q0 -16 -100 -148q-98 -131 -98 -145q0 -11 63 -86q88 -105 105 -129v-45q-25 -25 -37 -25q-13 0 -78 62q-94 91 -101 96q-25 -11 -47 -52.5t-22 -78.5q0 -34 22 -53 l-36 -21q-22 -16 -37 -16q-74 0 -74 63q0 14 47 135t47 133q0 13 -94 132t-94 131z" />
<glyph unicode="y" horiz-adv-x="720" d="M41 -459l2 3q2 4 6.5 12.5t10.5 20t15 29.5l18.5 37t23.5 46.5t28 54.5q114 225 148 401q-80 64 -154 166q-88 119 -88 197q0 63 53 63q19 0 48 -16l65 -156q46 -98 113 -153q14 20 116 237q79 172 136 172q67 0 67 -57q0 -11 -57 -100q-69 -110 -82 -154l-29 -59 q-20 -39 -20 -60q0 -10 2 -14q27 -52 24 -70q-54 -3 -137 -174q0 -1 -15 -34t-49.5 -110.5t-74.5 -166.5q-73 -166 -102 -166q-8 0 -28.5 6t-27.5 6l-3 6q-3 7 -6 16t-3 17z" />
<glyph unicode="z" horiz-adv-x="665" d="M43 586q34 34 117 92q63 29 157 53q98 25 119 25h119q23 -77 23 -101q0 -72 -119 -206l-154 -170q31 -39 141 -66q145 -41 205 -70q-21 -49 -57 -49q-211 0 -467 96v91q79 45 166 151l149 195v26q-2 0 -9 4.5t-17 4.5q-41 0 -166 -70q-39 -21 -68.5 -37.5t-41.5 -23.5 t-11 -7l-80 6z" />
<glyph unicode="{" horiz-adv-x="606" d="M53 590v33q0 19 21 43.5t45 31.5q47 9 135 39q52 24 80 99q22 61 22 114q0 42 -45 144q-15 30 -41 88t-37 82q-12 34 -12 79q0 63 88 109q68 39 121 39q38 0 96 -37q59 -35 62 -70q-15 -6 -49 -6h-58q-135 0 -135 -86q0 6 11 -22l42 -121q54 -157 54 -229 q0 -173 -138 -287q0 -2 31 -62q33 -56 33 -120q0 -21 -33 -170q-31 -161 -31 -170q0 -84 46.5 -134.5t121.5 -50.5q61 0 119 43l43 -8l6 -76q-104 -73 -151 -73q-142 0 -213 86q-66 81 -66 213q0 5 25 161q26 144 26 164q0 54 -28 76q-14 14 -76 33q-66 20 -115 45z" />
<glyph unicode="|" horiz-adv-x="309" d="M115 825l35 445l12 -2q11 -3 25.5 -5.5t21.5 -2.5q0 -48 -6 -150q-1 -30 -2 -55.5t-1.5 -37.5t-0.5 -13v-369q0 -110 34 -440q3 -23 21 -82q18 -58 18 -70q0 -29 -29 -51.5t-55 -22.5q-18 0 -38.5 25t-16.5 45q12 52 12 154q0 79 -16 319q-14 210 -14 313z" />
<glyph unicode="}" horiz-adv-x="681" d="M63 1395q15 18 97 43q74 22 92 22q102 0 166 -76q55 -67 55 -149t-70 -195q-67 -113 -67 -163q0 -70 80 -111q52 -16 147 -49q78 -28 78 -76q0 -20 -43 -57q-64 -54 -82 -80q-43 -58 -43 -131q0 -9 31 -152q33 -132 33 -153q0 -84 -95 -187q-94 -102 -180 -102 q-40 0 -82 45v47q2 2 62 2q79 0 137 113q41 84 41 129q0 19 -33 151q-31 146 -31 154q0 42 27 106q27 65 57 88q-5 13 -59 48q-64 39 -82 57q-26 26 -53 84q-25 55 -25 74q0 78 133 297q25 42 25 75q0 55 -51 84q-40 21 -80 21q-8 0 -38 -10.5t-38 -10.5q-7 0 -43 -5t-43 -5 q-23 48 -23 72z" />
<glyph unicode="&#xa3;" horiz-adv-x="1212" d="M104 356q0 94 62 183q70 102 166 102q54 0 131 -30.5t131 -73.5q34 21 43 98q8 71 14 110q-15 31 -100 31q-87 0 -178 -31q-86 -30 -90 -30q-30 0 -57 23.5t-27 43.5q0 57 202 78q9 3 242 12q24 47 51 183q25 130 64 192q56 86 166 86q77 0 147 -43q84 -53 84 -141 q0 -49 -22 -90t-52 -41q-11 0 -25 6t-16 6q0 89 -4 117q-15 82 -86 82q-88 0 -147 -142q-47 -109 -47 -176q1 -1 2.5 -5t2 -5.5t2 -4.5t3 -4.5t4 -3.5t5 -3t6 -1.5t7.5 -0.5q3 0 17 0.5l42 1.5t58 2q108 6 119 6q29 0 48.5 -25.5t19.5 -54.5q0 -68 -52 -68q-10 0 -43 19 t-36 20q-28 4 -101 4q-84 0 -111.5 -17.5t-27.5 -63.5q0 -19 2 -35v-43q0 -75 -21 -140q266 -164 504 -280q0 -18 -22 -92h-90q-22 52 -170 139q-133 79 -256 133l-111 -164q-98 -131 -174 -131q-91 0 -186 86q-93 90 -93 176zM211 367q0 -27 43 -91q50 -77 88 -77q8 0 10 6 t10 6q68 0 140 90q65 83 65 139q-48 38 -92 58q-74 39 -133 39q-43 0 -88 -66q-43 -64 -43 -104z" />
<glyph unicode="&#xa4;" horiz-adv-x="1206" d="M20 352q0 53 113 68l121 12q28 45 31 184v50q-9 6 -23 6q-11 0 -51 -21q-36 -20 -49 -20q-32 0 -55 24t-23 54q0 34 96 55q106 22 127 35q33 29 74 106q54 97 74 123q81 100 194 152q101 49 197 49q120 0 223 -74q117 -83 117 -215q0 -51 -12 -88h-48q-53 142 -106 201 q-65 71 -174 71q-122 0 -232 -82q-112 -83 -163 -206q26 -11 69 -11q39 0 135 13q89 12 111 12q32 0 49 -33q14 -22 14 -41q0 -61 -73 -61q-6 0 -78 10t-80 10q-153 0 -192 -33q-50 -41 -50 -182v-49q6 -20 47 -20q51 0 267 36q118 20 169 28.5t48 8.5q26 0 80 -75 q0 -18 -25 -37l-291 -21q-188 -18 -252 -61q59 -122 203 -189q120 -57 258 -57q42 0 137 27q114 30 123 63q15 68 41 68q58 0 58 -74q0 -108 -172 -154q-99 -24 -211 -24q-185 0 -324 86q-93 61 -166 162q-64 88 -74 88q-7 0 -84 -23q-67 -20 -84 -20q-28 0 -56 24t-28 45z " />
<glyph unicode="&#xa8;" horiz-adv-x="610" d="M41 1548q-1 35 23.5 58.5t60.5 25.5q113 -24 113 -65q1 -34 -30 -62t-67 -30q-24 0 -63 28q-37 30 -37 45zM354 1544q-1 35 23.5 58.5t60.5 25.5q113 -24 113 -65q1 -34 -29.5 -62.5t-66.5 -30.5q-24 0 -64 29q-37 30 -37 45z" />
<glyph unicode="&#xa9;" horiz-adv-x="1570" d="M84 463q0 290 203 522q212 244 512 244q212 0 364 -131q98 -82 219 -310q129 -240 129 -358q0 -175 -170 -334q-162 -149 -307 -149h-147q-286 0 -496 94q-307 132 -307 422zM168 467q0 -224 283 -338q189 -76 380 -76h87q155 0 307 82q192 104 192 268q0 107 -82 275 q-89 183 -209 303q-143 143 -280 143q-261 0 -465 -192q-213 -201 -213 -465zM483 541q0 62 99 170t170 108q32 0 90 -24q58 -21 71 -43v-47q-292 0 -292 -185q0 -51 92 -78q68 -22 112 -22q15 0 82 20q80 23 86 23q8 0 18.5 -6.5t18.5 -12.5l8 -6q-18 -34 -98 -61 q-95 -31 -211 -31q-93 0 -166 55q-80 59 -80 140z" />
<glyph unicode="&#xad;" horiz-adv-x="811" d="M104 608q0 33 35 54q26 20 56 20q8 0 42 -10t42 -10q44 0 170 14q162 18 251 39q35 -38 35 -64q0 -29 -17 -51t-40 -22q-4 0 -13 0.5t-26 1.5t-33 2q-58 6 -69 6q-4 0 -25 -2t-68 -6.5t-96 -8.5q-161 -14 -186 -14q-18 0 -38 17t-20 34z" />
<glyph unicode="&#xae;" horiz-adv-x="1570" d="M84 463q0 290 203 522q212 244 512 244q212 0 364 -131q98 -82 219 -310q129 -240 129 -358q0 -175 -170 -334q-162 -149 -307 -149h-147q-286 0 -496 94q-307 132 -307 422zM168 467q0 -224 283 -338q189 -76 380 -76h87q155 0 307 82q192 104 192 268q0 107 -82 275 q-89 183 -209 303q-143 143 -280 143q-261 0 -465 -192q-213 -201 -213 -465zM514 494q0 196 35 286q55 144 217 144q58 0 97.5 -40.5t39.5 -90.5q0 -56 -57 -131l-1 -1l-1 -1v-1l-1 -1l-1 -1l-1 -1v-1l-1 -1l-1 -1l-1 -1l-50 -64q0 -12 95 -92q107 -86 157 -144 q-21 -47 -47 -47q-100 0 -368 283q-17 -17 -17 -111q0 -60 54 -274q-25 -25 -41 -25q-107 0 -107 316zM631 641q47 15 96 61q50 47 59 82l-57 15l-61 -45q-37 -27 -37 -68v-45z" />
<glyph unicode="&#xb0;" horiz-adv-x="643" d="M92 1112q0 115 82 197t207 82q58 0 129 -109q65 -95 65 -139q0 -98 -106 -176q-91 -70 -168 -70q-87 0 -151 70q-58 64 -58 145zM197 1128q0 -37 22 -79q27 -58 82 -58q35 0 92 45q66 54 66 103q0 36 -33 80q-40 55 -88 55q-50 0 -96 -49q-45 -45 -45 -97z" />
<glyph unicode="&#xb4;" horiz-adv-x="378" d="M59 1487q-34 39 41 149q62 84 113 127q64 52 98 13q46 -51 8 -86q-67 -52 -147 -119q-3 -4 -19 -35.5t-20 -34.5l-43 -37l-5 3q-5 3 -12.5 8t-13.5 12z" />
<glyph unicode="&#xb5;" horiz-adv-x="1171" d="M96 -250q0 88 29 402t29 397q0 118 -25 149q29 43 61 109q16 0 33.5 -2.5t26.5 -4.5l10 -3l45 -330q47 -256 105 -256q92 0 174 276l80 342h88q31 -57 28 -90q-24 -243 -24 -276q0 -285 141 -285q84 0 133 107l66 166q49 -27 49 -95q0 -105 -74 -200q-80 -103 -194 -103 q-78 0 -148 101q-73 106 -76 192q-32 -19 -67 -94q-45 -91 -64 -113q-46 -55 -112 -55q-75 0 -121 104l-51 138q-18 -114 -27 -295q-9 -247 -12 -281h-103z" />
<glyph unicode="&#xb6;" horiz-adv-x="1224" d="M31 846q0 96 137 203q128 96 205 96q10 0 69 -6q16 -1 33 -2t26.5 -1.5t12.5 -0.5q30 0 332 61l305 64q62 0 82 -5q23 -10 80 -61q3 -40 -170 -64q-62 -71 -70 -129q-33 -215 -33 -491v-432q0 -4 2 -29.5t2 -34.5q0 -57 -47 -57q-18 0 -53 35q-31 36 -31 55l10 43 q1 2 1 4q13 55 20 139q12 108 12 246v291l2 14q1 15 3.5 47.5t5.5 69.5q10 143 10 184q-2 2 -6 8.5t-7 10t-9.5 7t-14.5 3.5q-58 0 -215 -43q-143 -35 -193 -55q-38 -14 -38 -86l-11 -830q31 -98 31 -106q0 -32 -28.5 -55t-55.5 -23q-39 0 -39 184q0 50 10 258q9 157 5 222 l-207 82q-168 73 -168 184zM158 829q0 -49 92 -96q80 -41 129 -41q8 0 14.5 3t10.5 7l4 3v313h-86q-40 0 -103 -78q-61 -76 -61 -111z" />
<glyph unicode="&#xc0;" horiz-adv-x="1372" d="M74 162q46 -193 90 -193h33l49 109q26 59 47 88q34 40 330 104q305 66 432 66q81 0 135 -100q24 -55 82 -187q46 -102 98 -102q57 0 57 69q0 9 -84 131q-83 121 -92 160q27 21 27 51q0 47 -35 68q-6 4 -44 13t-46 14q-28 24 -49 63l-37 70q-105 196 -158 305l-114 254 q-91 198 -119 198h-43q-12 -21 -12 -61q0 -24 20 -65q21 -41 21 -52q0 -17 -158 -344q-167 -344 -277 -540q-7 -13 -84 -48q-69 -29 -69 -71zM362 322l357 718l319 -561v-37zM408 1698q-38 35 8 86q34 40 98 -12q51 -43 113 -127q75 -110 41 -150q-6 -7 -13.5 -12t-12.5 -7 l-5 -3l-43 36q-4 3 -20 34.5t-19 35.5q-80 67 -147 119z" />
<glyph unicode="&#xc1;" horiz-adv-x="1372" d="M74 162q0 42 69 71q77 35 84 48q110 196 277 540q158 327 158 344q0 11 -21 52q-20 41 -20 65q0 40 12 61h43q28 0 119 -198l114 -254q53 -109 158 -305l37 -70q21 -39 49 -63q8 -5 46 -14t44 -13q35 -21 35 -68q0 -30 -27 -51q9 -39 92 -160q84 -122 84 -131 q0 -69 -57 -69q-52 0 -98 102q-58 132 -82 187q-54 100 -135 100q-127 0 -432 -66q-296 -64 -330 -104q-21 -29 -47 -88l-49 -109h-33q-44 0 -90 193zM362 322l676 120v37l-319 561zM639 1483q-34 39 41 149q62 84 113 127q64 52 98 13q46 -51 8 -86q-67 -52 -147 -119 q-3 -4 -19 -35.5t-20 -34.5l-43 -37l-5 3q-5 3 -12.5 8t-13.5 12z" />
<glyph unicode="&#xc2;" horiz-adv-x="1372" d="M74 162q0 42 69 71q77 35 84 48q110 196 277 540q158 327 158 344q0 11 -21 52q-20 41 -20 65q0 40 12 61h43q28 0 119 -198l114 -254q53 -109 158 -305l37 -70q21 -39 49 -63q8 -5 46 -14t44 -13q35 -21 35 -68q0 -30 -27 -51q9 -39 92 -160q84 -122 84 -131 q0 -69 -57 -69q-52 0 -98 102q-58 132 -82 187q-54 100 -135 100q-127 0 -432 -66q-296 -64 -330 -104q-21 -29 -47 -88l-49 -109h-33q-44 0 -90 193zM362 322l676 120v37l-319 561zM463 1477l16 41q23 18 68 53q43 24 80 53.5t54.5 44.5t23.5 14q5 0 73 -77q71 -77 68 -88 q47 -71 -23 -105q-11 3 -57 74q-46 66 -72 69q-17 0 -100 -71t-92 -68q-51 26 -39 60z" />
<glyph unicode="&#xc3;" horiz-adv-x="1372" d="M74 162q0 42 69 71q77 35 84 48q110 196 277 540q158 327 158 344q0 11 -21 52q-20 41 -20 65q0 40 12 61h43q28 0 119 -198l114 -254q53 -109 158 -305l37 -70q21 -39 49 -63q8 -5 46 -14t44 -13q35 -21 35 -68q0 -30 -27 -51q9 -39 92 -160q84 -122 84 -131 q0 -69 -57 -69q-52 0 -98 102q-58 132 -82 187q-54 100 -135 100q-127 0 -432 -66q-296 -64 -330 -104q-21 -29 -47 -88l-49 -109h-33q-44 0 -90 193zM362 322l676 120v37l-319 561zM436 1540q0 57 64 115q63 61 96 69q22 6 49 -12q17 -20 60 -94q16 -40 37.5 -60t41 -19 t33.5 17q14 15 19 31t4 31v14q15 38 49 17q27 -27 18 -72q-9 -46 -49 -86q-53 -50 -125 -35q-31 5 -69 80q-51 91 -64 96q-62 -9 -76 -65q-15 -56 -30 -74q-34 -10 -48.5 1.5t-9.5 45.5z" />
<glyph unicode="&#xc4;" horiz-adv-x="1372" d="M74 162q0 42 69 71q77 35 84 48q110 196 277 540q158 327 158 344q0 11 -21 52q-20 41 -20 65q0 40 12 61h43q28 0 119 -198l114 -254q53 -109 158 -305l37 -70q21 -39 49 -63q8 -5 46 -14t44 -13q35 -21 35 -68q0 -30 -27 -51q9 -39 92 -160q84 -122 84 -131 q0 -69 -57 -69q-52 0 -98 102q-58 132 -82 187q-54 100 -135 100q-127 0 -432 -66q-296 -64 -330 -104q-21 -29 -47 -88l-49 -109h-33q-44 0 -90 193zM362 322l676 120v37l-319 561zM412 1548q-1 35 23.5 58.5t60.5 25.5q112 -24 112 -65q1 -34 -29.5 -62t-66.5 -30 q-24 0 -63 28q-37 30 -37 45zM725 1544q-1 35 23.5 58.5t60.5 25.5q113 -24 113 -65q1 -34 -30 -62.5t-67 -30.5q-23 0 -63 29q-37 30 -37 45z" />
<glyph unicode="&#xc5;" horiz-adv-x="1374" d="M74 162q0 42 69 71q77 35 84 48q110 196 277 540q158 327 158 344q0 11 -21 52q-20 41 -20 65q0 40 12 61h43q28 0 119 -198l114 -254q53 -109 158 -305l37 -70q21 -39 49 -63q8 -5 46 -14t44 -13q35 -21 35 -68q0 -30 -27 -51q9 -39 92 -160q84 -122 84 -131 q0 -69 -57 -69q-52 0 -98 102q-58 132 -82 187q-54 100 -135 100q-127 0 -432 -66q-296 -64 -330 -104q-21 -29 -47 -88l-49 -109h-33q-44 0 -90 193zM362 322l676 120v37l-319 561zM403 1618q0 115 82 197q81 81 207 81q58 0 129 -108q66 -97 66 -139q0 -97 -107 -176 q-91 -70 -168 -70q-87 0 -151 70q-58 64 -58 145zM508 1634q0 -38 22 -80q26 -57 82 -57q36 0 93 45q65 53 65 103q0 35 -33 79q-41 56 -88 56q-50 0 -96 -49q-45 -45 -45 -97z" />
<glyph unicode="&#xc6;" horiz-adv-x="1474" d="M20 152q0 15 31 94q26 65 62 129q31 54 73 147q-3 20 7 64q81 114 198 397l43 88q27 61 27 98q0 15 -15.5 65t-15.5 66q0 22 19 27.5t88 5.5l682 -10q30 0 69 20q45 -45 45 -73q0 -72 -63 -72q-9 0 -41.5 18.5t-36.5 18.5q-83 14 -279 14h-149q-102 -6 -146 -39 q75 -234 199 -508q26 2 160 25q114 18 125 18q27 0 50.5 -17t23.5 -40q0 -30 -26 -55t-52 -25q-8 0 -42 11.5t-42 11.5q-72 0 -185 -49q49 -176 84 -275q74 -213 105 -213q20 0 211 51q202 54 211 54q61 0 61 -78q0 -52 -35 -55q-196 -20 -356 -60q-20 -3 -92 -41 q-68 -39 -84 -39q-31 0 -80 58q8 33 8 82q0 118 -61 292l-94 242q-111 -16 -172 -22q-94 -14 -224 -56q-23 -10 -49 -61q-3 -8 -35 -80q-94 -187 -94 -272q-1 -1 -6 -13.5t-11 -17t-16 -4.5q-29 0 -54.5 24.5t-25.5 53.5zM356 674q0 -18 15 -33q192 31 311 43q0 2 5 13t5 22 q0 33 -67 188q-62 140 -84 174z" />
<glyph unicode="&#xc8;" horiz-adv-x="976" d="M104 561q0 -26 17 -46.5t41 -20.5q2 0 6.5 0.5l13.5 1.5t19 2q22 3 30 -2q26 -288 23 -398q3 -12 31 -43q32 -32 57 -35l492 64q30 -10 86 -10q59 0 65 2q45 12 45 61q0 18 -21.5 34.5t-41.5 16.5q-18 0 -127 -20q-114 -21 -125 -21h-201q-119 0 -149 52q-19 28 -19 135 q-3 116 -31 196q43 34 205 64q132 27 172 27q7 0 101 -23q84 -20 94 -20q19 0 78 53v61q-54 23 -56 23l-575 -64q-35 41 -41 137q1 -3 1.5 30t0.5 128q0 105 39 144q302 55 422 55q9 0 57 -23q44 -20 59 -20q41 0 41 47q0 41 -57 61l-94 29l-410 -53q-17 0 -65 10 q-41 12 -51 12q-34 0 -74 -16q-47 -21 -47 -53q0 -45 37 -66q39 -20 45 -51q24 -237 24 -365q-27 -24 -84 -36q-33 -9 -33 -60zM291 1548q-38 35 8 86q34 40 98 -12q51 -43 113 -127q75 -110 41 -149q-6 -7 -13.5 -12t-12.5 -8l-5 -3l-43 37q-4 3 -20 34.5t-19 35.5 q-66 55 -147 118z" />
<glyph unicode="&#xc9;" horiz-adv-x="976" d="M104 561q0 51 33 60q57 12 84 36q0 128 -24 365q-6 31 -45 51q-37 21 -37 66q0 32 47 53q40 16 74 16q11 0 51 -12q48 -10 65 -10l410 53l94 -29q57 -20 57 -61q0 -47 -41 -47q-15 0 -59 20q-48 23 -57 23q-120 0 -422 -55q-39 -39 -39 -144q0 -95 -0.5 -128t-1.5 -30 q6 -96 41 -137l575 64q2 0 56 -23v-61q-59 -53 -78 -53q-10 0 -94 20q-94 23 -101 23q-40 0 -172 -27q-162 -30 -205 -64q28 -80 31 -196q0 -106 19 -135q30 -52 149 -52h201q11 0 125 21q109 20 127 20q20 0 41.5 -16.5t21.5 -34.5q0 -49 -45 -61q-6 -2 -65 -2 q-56 0 -86 10l-492 -64q-25 3 -57 35q-28 31 -31 43q3 110 -23 398q-8 5 -30 2q-10 -1 -19 -2l-13.5 -1.5t-6.5 -0.5q-24 0 -41 20.5t-17 46.5zM483 1331q-34 40 41 150q62 84 113 127q64 52 98 12q46 -51 8 -86q-67 -52 -147 -119q-3 -4 -19 -35t-20 -34l-43 -37l-5 3 q-5 2 -12.5 7t-13.5 12z" />
<glyph unicode="&#xca;" horiz-adv-x="976" d="M104 561q0 51 33 60q57 12 84 36q0 128 -24 365q-6 31 -45 51q-37 21 -37 66q0 32 47 53q40 16 74 16q11 0 51 -12q48 -10 65 -10l410 53l94 -29q57 -20 57 -61q0 -47 -41 -47q-15 0 -59 20q-48 23 -57 23q-120 0 -422 -55q-39 -39 -39 -144q0 -95 -0.5 -128t-1.5 -30 q6 -96 41 -137l575 64q2 0 56 -23v-61q-59 -53 -78 -53q-10 0 -94 20q-94 23 -101 23q-40 0 -172 -27q-162 -30 -205 -64q28 -80 31 -196q0 -106 19 -135q30 -52 149 -52h201q11 0 125 21q109 20 127 20q20 0 41.5 -16.5t21.5 -34.5q0 -49 -45 -61q-6 -2 -65 -2 q-56 0 -86 10l-492 -64q-25 3 -57 35q-28 31 -31 43q3 110 -23 398q-8 5 -30 2q-10 -1 -19 -2l-13.5 -1.5t-6.5 -0.5q-24 0 -41 20.5t-17 46.5zM344 1411l16 41q23 18 68 53q43 24 80 53.5t54.5 45t23.5 14.5q4 0 73 -78q71 -77 68 -88q46 -70 -22 -104q-13 4 -58 73 q-46 67 -72 70q-16 0 -100 -72q-82 -70 -92 -67q-50 26 -39 59z" />
<glyph unicode="&#xcb;" horiz-adv-x="976" d="M104 561q0 51 33 60q57 12 84 36q0 128 -24 365q-6 31 -45 51q-37 21 -37 66q0 32 47 53q40 16 74 16q11 0 51 -12q48 -10 65 -10l410 53l94 -29q57 -20 57 -61q0 -47 -41 -47q-15 0 -59 20q-48 23 -57 23q-120 0 -422 -55q-39 -39 -39 -144q0 -95 -0.5 -128t-1.5 -30 q6 -96 41 -137l575 64q2 0 56 -23v-61q-59 -53 -78 -53q-10 0 -94 20q-94 23 -101 23q-40 0 -172 -27q-162 -30 -205 -64q28 -80 31 -196q0 -106 19 -135q30 -52 149 -52h201q11 0 125 21q109 20 127 20q20 0 41.5 -16.5t21.5 -34.5q0 -49 -45 -61q-6 -2 -65 -2 q-56 0 -86 10l-492 -64q-25 3 -57 35q-28 31 -31 43q3 110 -23 398q-8 5 -30 2q-10 -1 -19 -2l-13.5 -1.5t-6.5 -0.5q-24 0 -41 20.5t-17 46.5zM274 1440q-1 35 23.5 58.5t60.5 25.5q113 -24 113 -66q1 -34 -29.5 -62t-66.5 -30q-24 0 -64 29q-37 30 -37 45zM588 1436 q-1 35 23.5 58.5t60.5 25.5q112 -24 112 -66q1 -34 -29.5 -62t-66.5 -30q-23 0 -63 29q-37 30 -37 45z" />
<glyph unicode="&#xcc;" horiz-adv-x="870" d="M104 1087q0 -57 80 -57q9 0 105 35l133 49q33 -103 39 -283q2 -18 2 -264q0 -45 2 -90q2 -43 2 -104q0 -169 -43 -203q-45 -31 -115 -37q-70 -3 -108 -41q-6 -36 17 -59t61 -23q16 0 116 33q96 34 158 47q24 5 168 21q97 9 149 36l-6 89q-13 -1 -151 -21l-109 -16 q-38 0 -47 59l-10 555q0 225 12 324q54 28 113 28q9 0 40.5 -20.5t39.5 -20.5h32q25 48 25 78q0 80 -53 80q-7 0 -76 -16q-73 -17 -76 -17q-4 0 -61 11q-52 10 -60 10q-37 0 -49 -21q-23 -35 -43 -49l-252 -49q-35 -56 -35 -64zM244 1581q-38 35 8 86q34 40 98 -12 q51 -43 113 -127q75 -110 41 -150q-6 -7 -13.5 -12t-12.5 -8l-5 -2l-43 37q-4 3 -20 34t-19 35q-80 67 -147 119z" />
<glyph unicode="&#xcd;" horiz-adv-x="870" d="M104 1087q0 8 35 64l252 49q20 14 43 49q12 21 49 21q8 0 60 -10q57 -11 61 -11q3 0 76 17q69 16 76 16q53 0 53 -80q0 -30 -25 -78h-32q-8 0 -39.5 20.5t-40.5 20.5q-59 0 -113 -28q-12 -99 -12 -324l10 -555q9 -59 47 -59l109 16q138 20 151 21l6 -89q-52 -27 -149 -36 q-144 -16 -168 -21q-62 -13 -158 -47q-100 -33 -116 -33q-38 0 -61 23t-17 59q38 38 108 41q70 6 115 37q43 34 43 203q0 61 -2 104q-2 45 -2 90q0 246 -2 264q-6 180 -39 283l-133 -49q-96 -35 -105 -35q-80 0 -80 57zM477 1395q-34 39 41 149q62 84 113 127q64 52 98 12 q46 -51 8 -86q-81 -63 -147 -118q-3 -4 -19 -35.5t-20 -34.5l-43 -37l-5 3q-5 3 -12.5 8t-13.5 12z" />
<glyph unicode="&#xce;" horiz-adv-x="870" d="M104 1087q0 8 35 64l252 49q20 14 43 49q12 21 49 21q8 0 60 -10q57 -11 61 -11q3 0 76 17q69 16 76 16q53 0 53 -80q0 -30 -25 -78h-32q-8 0 -39.5 20.5t-40.5 20.5q-59 0 -113 -28q-12 -99 -12 -324l10 -555q9 -59 47 -59l109 16q138 20 151 21l6 -89q-52 -27 -149 -36 q-144 -16 -168 -21q-62 -13 -158 -47q-100 -33 -116 -33q-38 0 -61 23t-17 59q38 38 108 41q70 6 115 37q43 34 43 203q0 61 -2 104q-2 45 -2 90q0 246 -2 264q-6 180 -39 283l-133 -49q-96 -35 -105 -35q-80 0 -80 57zM283 1423l16 41q23 19 68 54q43 24 79.5 53.5t54 44.5 t23.5 14q5 0 74 -78q71 -77 68 -88q46 -70 -23 -104q-10 4 -57 74q-46 66 -72 69q-17 0 -100 -71t-92 -68q-50 26 -39 59z" />
<glyph unicode="&#xcf;" horiz-adv-x="870" d="M104 1087q0 8 35 64l252 49q20 14 43 49q12 21 49 21q8 0 60 -10q57 -11 61 -11q3 0 76 17q69 16 76 16q53 0 53 -80q0 -30 -25 -78h-32q-8 0 -39.5 20.5t-40.5 20.5q-59 0 -113 -28q-12 -99 -12 -324l10 -555q9 -59 47 -59l109 16q138 20 151 21l6 -89q-52 -27 -149 -36 q-144 -16 -168 -21q-62 -13 -158 -47q-100 -33 -116 -33q-38 0 -61 23t-17 59q38 38 108 41q70 6 115 37q43 34 43 203q0 61 -2 104q-2 45 -2 90q0 246 -2 264q-6 180 -39 283l-133 -49q-96 -35 -105 -35q-80 0 -80 57zM213 1430q-1 35 23.5 58t60.5 25q113 -24 113 -65 q1 -34 -30 -62t-67 -30q-24 0 -63 28q-37 30 -37 46zM526 1425q-1 35 23.5 58.5t60.5 25.5q113 -24 113 -65q1 -34 -29.5 -62t-66.5 -30q-25 0 -64 28q-37 30 -37 45z" />
<glyph unicode="&#xd1;" horiz-adv-x="1341" d="M74 1135q0 35 32.5 59.5t71.5 24.5q38 0 62 -17q66 -178 317 -444l477 -475q45 23 70 120l33 160q31 126 39 221q5 45 14 156q21 161 14 199q-14 74 -14 84q0 59 55 59q28 0 53 -32t25 -64q0 -63 -86 -561q-95 -541 -139 -541q-14 0 -344 348q-418 436 -527 545l88 -893 q0 -15 -34 -84q-103 15 -103 55q0 8 5 25.5t5 19.5v260q0 225 -57 510q-32 160 -44.5 219t-12.5 46zM459 1331q0 58 63 115q65 62 96 70q21 6 50 -13q15 -17 59 -94q16 -40 38 -59.5t41.5 -18.5t33.5 17q14 15 18.5 31t3.5 30v14q15 38 49 17q28 -28 19 -72q-9 -46 -49 -86 q-53 -50 -125 -35q-32 6 -70 80q-51 91 -63 96q-62 -9 -76 -65q-15 -54 -31 -74q-34 -10 -48 1.5t-9 45.5z" />
<glyph unicode="&#xd2;" horiz-adv-x="1247" d="M127 494q0 -228 180 -359q160 -115 385 -115q212 0 342 91q152 109 152 335q0 152 -68 326q-85 204 -244 348v-1v-1v-1v1v1v1v1v1v1v1v1v1v1v1v1v1v1v1v1v1v1v1v1v1v1v1v1v1v1v1v1v1v1v1v1v1v1v1v1v1v1v1v1v1v1v1v1v1v1v1v1v1v10q0 34 -8 47q-109 80 -215 80 q-142 0 -274 -179q-107 -136 -184 -356q-66 -189 -66 -274zM221 547q0 156 144 393q159 261 315 246q36 -74 129 -152q119 -104 152 -143q47 -60 96 -223q45 -145 45 -217q0 -171 -148 -263q-116 -73 -262 -73q-471 0 -471 432zM410 1634q-38 35 8 86q34 40 98 -12 q51 -43 113 -127q75 -110 41 -149q-6 -7 -13.5 -12t-12.5 -8l-5 -3l-43 37q-4 3 -20 34.5t-19 35.5q-66 55 -147 118z" />
<glyph unicode="&#xd3;" horiz-adv-x="1247" d="M127 494q0 85 66 274q77 220 184 356q132 179 274 179q106 0 215 -80q8 -13 8 -47v-3v-2v-3v-2v-3v-3v-3v-2v-3v-3v-3v-3v-3v-3v-3v-4v-3v-7q159 -144 244 -348q68 -174 68 -326q0 -226 -152 -335q-130 -91 -342 -91q-225 0 -385 115q-180 131 -180 359zM221 547 q0 -432 471 -432q146 0 262 73q148 92 148 263q0 72 -45 217q-49 163 -96 223q-33 39 -152 143q-93 78 -129 152q-156 15 -315 -246q-144 -237 -144 -393zM641 1417q-34 40 41 150q62 84 113 127q64 52 98 12q46 -51 8 -86q-67 -52 -147 -119q-3 -4 -19 -35t-20 -34l-43 -37 l-5 3q-5 2 -12.5 7t-13.5 12z" />
<glyph unicode="&#xd4;" horiz-adv-x="1247" d="M127 494q0 85 66 274q77 220 184 356q132 179 274 179q106 0 215 -80q8 -13 8 -47v-3v-2v-3v-2v-3v-3v-3v-2v-3v-3v-3v-3v-3v-3v-3v-4v-3v-7q159 -144 244 -348q68 -174 68 -326q0 -226 -152 -335q-130 -91 -342 -91q-225 0 -385 115q-180 131 -180 359zM221 547 q0 -432 471 -432q146 0 262 73q148 92 148 263q0 72 -45 217q-49 163 -96 223q-33 39 -152 143q-93 78 -129 152q-156 15 -315 -246q-144 -237 -144 -393zM461 1450l16 41q23 18 68 53q43 24 79.5 53.5t54 45t23.5 14.5q5 0 74 -78q71 -77 68 -88q47 -71 -23 -105 q-11 4 -57 74q-46 67 -72 70q-16 0 -100 -72q-82 -70 -92 -67q-50 26 -39 59z" />
<glyph unicode="&#xd5;" horiz-adv-x="1247" d="M127 494q0 85 66 274q77 220 184 356q132 179 274 179q106 0 215 -80q8 -13 8 -47v-3v-2v-3v-2v-3v-3v-3v-2v-3v-3v-3v-3v-3v-3v-3v-4v-3v-7q159 -144 244 -348q68 -174 68 -326q0 -226 -152 -335q-130 -91 -342 -91q-225 0 -385 115q-180 131 -180 359zM221 547 q0 -432 471 -432q146 0 262 73q148 92 148 263q0 72 -45 217q-49 163 -96 223q-33 39 -152 143q-93 78 -129 152q-156 15 -315 -246q-144 -237 -144 -393zM440 1489q0 57 64 115q63 61 96 69q22 6 49 -12q17 -20 60 -94q16 -40 37.5 -60t41 -19t33.5 17q14 15 19 31t4 30v15 q15 37 49 16q27 -27 18 -71q-9 -46 -49 -86q-53 -50 -125 -35q-31 5 -69 80q-51 91 -64 96q-62 -9 -76 -65q-15 -56 -30 -74q-34 -10 -48.5 1.5t-9.5 45.5z" />
<glyph unicode="&#xd6;" horiz-adv-x="1247" d="M127 494q0 85 66 274q77 220 184 356q132 179 274 179q106 0 215 -80q8 -13 8 -47v-3v-2v-3v-2v-3v-3v-3v-2v-3v-3v-3v-3v-3v-3v-3v-4v-3v-7q159 -144 244 -348q68 -174 68 -326q0 -226 -152 -335q-130 -91 -342 -91q-225 0 -385 115q-180 131 -180 359zM221 547 q0 -432 471 -432q146 0 262 73q148 92 148 263q0 72 -45 217q-49 163 -96 223q-33 39 -152 143q-93 78 -129 152q-156 15 -315 -246q-144 -237 -144 -393zM410 1477q-1 35 23.5 58.5t60.5 25.5q112 -24 112 -66q1 -34 -29.5 -62t-66.5 -30q-24 0 -64 29q-36 29 -36 45z M723 1473q-1 35 23.5 58t60.5 25q113 -24 113 -65q1 -34 -30 -62t-67 -30q-24 0 -63 28q-37 30 -37 46z" />
<glyph unicode="&#xd8;" horiz-adv-x="1144" d="M63 451q0 320 349 553q37 22 98 28q80 8 113 10q71 50 82 50q8 0 17.5 -5.5t18.5 -5.5q33 0 88 131q58 131 117 131q13 0 62 -22v-35q0 1 -8 -9t-25.5 -34t-40.5 -57q-74 -106 -74 -146q0 -8 53 -79q55 -76 70 -113q109 -301 109 -475q0 -219 -195 -328 q-149 -82 -360 -82q-40 0 -58 2q-48 -42 -57 -190l-35 -111h-35q-29 0 -54.5 24t-25.5 50q0 10 41 106q46 111 56 150q-175 108 -246 219q-60 102 -60 238zM147 467q0 -88 54 -199q72 -147 196 -162l295 793q-53 35 -88 35q-171 0 -317 -158q-140 -152 -140 -309zM494 88 q53 -35 90 -35q164 0 284 97q129 108 129 286q0 110 -57 275q-64 193 -139 202z" />
<glyph unicode="&#xd9;" d="M127 731q0 -201 113 -420q145 -280 368 -280q225 0 363 276q110 219 110 443v264q0 36 -18 86q-27 65 -66 65q-12 0 -61 -22v-45q0 -6 31 -115q30 -105 30 -117q0 -221 -69 -422q-108 -307 -320 -307q-204 0 -313 275q-74 192 -74 381q0 13 21 163q20 143 20 162 q0 68 -63 68q-48 0 -72 -56v-399zM346 1505q-38 35 8 86q34 41 99 -12q48 -41 112 -127q75 -110 41 -149q-6 -7 -13.5 -12t-12.5 -8l-5 -3l-43 37q-4 3 -19.5 34t-18.5 35q-69 58 -148 119z" />
<glyph unicode="&#xda;" d="M127 731q0 -201 113 -420q145 -280 368 -280q225 0 363 276q110 219 110 443v264q0 36 -18 86q-27 65 -66 65q-12 0 -61 -22v-45q0 -6 31 -115q30 -105 30 -117q0 -221 -69 -422q-108 -307 -320 -307q-204 0 -313 275q-74 192 -74 381q0 13 21 163q20 143 20 162 q0 68 -63 68q-48 0 -72 -56v-399zM526 1303q-34 39 41 149q62 84 113 127q64 52 98 12q46 -51 8 -86q-67 -52 -147 -119q-3 -4 -19 -35t-20 -34l-43 -37l-5 3q-5 3 -12.5 8t-13.5 12z" />
<glyph unicode="&#xdb;" d="M127 731v399q24 56 72 56q63 0 63 -68q0 -19 -20 -162q-21 -150 -21 -163q0 -189 74 -381q109 -275 313 -275q212 0 320 307q69 201 69 422q0 12 -30 117q-31 109 -31 115v45q49 22 61 22q39 0 66 -65q18 -50 18 -86v-264q0 -224 -110 -443q-138 -276 -363 -276 q-223 0 -368 280q-113 219 -113 420zM373 1350l16 41q23 18 68 53q43 24 79.5 53.5t54 44.5t23.5 14q6 0 74 -77q71 -77 68 -88q47 -71 -23 -105q-10 3 -57 74q-46 67 -72 70q-16 0 -100 -72q-83 -71 -92 -68q-51 26 -39 60z" />
<glyph unicode="&#xdc;" d="M127 731v399q24 56 72 56q63 0 63 -68q0 -19 -20 -162q-21 -150 -21 -163q0 -189 74 -381q109 -275 313 -275q212 0 320 307q69 201 69 422q0 12 -30 117q-31 109 -31 115v45q49 22 61 22q39 0 66 -65q18 -50 18 -86v-264q0 -224 -110 -443q-138 -276 -363 -276 q-223 0 -368 280q-113 219 -113 420zM326 1374q-1 35 23.5 58.5t60.5 25.5q112 -24 112 -65q1 -34 -29.5 -62.5t-66.5 -30.5q-24 0 -64 29q-36 29 -36 45zM639 1370q-1 35 23.5 58.5t60.5 25.5q113 -24 113 -65q1 -34 -30 -62.5t-67 -30.5q-23 0 -63 29q-37 30 -37 45z" />
<glyph unicode="&#xdd;" horiz-adv-x="1173" d="M94 1155q0 25 24 44.5t50 19.5q33 0 49 -25q30 -100 156 -305q164 -268 268 -268q55 0 240 299t206 299q22 0 40 -32t18 -59q0 -3 -113 -165q-128 -185 -166 -256q-4 -8 -39 -43q-38 -38 -47 -72q-35 -110 -35 -303q0 -85 21 -150q20 -60 22 -55q0 -64 -69 -64 q-59 0 -74 201l-8 244q-109 101 -180 172q-114 118 -170 194q-46 64 -123 189q-70 116 -70 135zM569 1270q-34 39 41 149q62 84 113 127q64 52 98 13q46 -51 8 -86q-67 -52 -147 -119q-3 -4 -19 -35.5t-20 -34.5l-43 -37l-5 3q-5 3 -12.5 8t-13.5 12z" />
<glyph unicode="&#xdf;" horiz-adv-x="978" d="M94 682q0 200 72 391q108 270 317 270q62 0 185 -69q141 -80 141 -146q0 -64 -147 -208q-100 -97 -168 -150q15 -37 102 -55q125 -24 158 -37q69 -30 133 -90q69 -69 69 -131q0 -136 -155 -230q-133 -80 -250 -80q-44 0 -139 25q-117 34 -117 74q0 25 16 47t35 22 q33 -11 96 -36q93 -37 109 -37q94 0 182 55q107 67 107 160q0 49 -62 96q-48 39 -270 86q-182 41 -182 96q0 25 36 51q20 13 50 35q79 65 161 146q109 109 109 147q0 60 -102 98q-71 27 -107 27q-179 0 -252 -276q-43 -154 -43 -322q0 -184 51 -477q47 -283 86 -381l-34 -35 h-68q-30 91 -72 381q-47 344 -47 553z" />
<glyph unicode="&#xe0;" horiz-adv-x="874" d="M84 279q0 -40 45 -66q42 -25 76 -25q111 0 201 93l176 223l75 -176q52 -125 93 -181q35 9 59 39q20 23 20 50q0 11 -43 75q-48 72 -59 105q-62 169 -84 252q-8 55 -8 96q-53 35 -68 35q-8 0 -20.5 -11t-24.5 -24.5t-14 -15.5q-6 -3 -59 -15q-37 -8 -70 -41 q-295 -313 -295 -413zM221 305v35q0 44 111 170q90 102 145 141q37 0 37 -20q0 -39 -82 -176q-94 -150 -156 -150h-55zM264 1143q-38 35 8 86q34 41 99 -12q48 -41 112 -127q75 -110 41 -150q-6 -7 -13 -12t-12 -8l-5 -2l-43 36q-4 3 -20 34.5t-19 35.5q-69 58 -148 119z " />
<glyph unicode="&#xe1;" horiz-adv-x="874" d="M84 279q0 100 295 413q33 33 70 41q53 12 59 15q2 2 14 15.5t24.5 24.5t20.5 11q15 0 68 -35q0 -41 8 -96q22 -83 84 -252q11 -33 59 -105q43 -64 43 -75q0 -27 -20 -50q-24 -30 -59 -39q-41 56 -93 181l-75 176l-176 -223q-90 -93 -201 -93q-34 0 -76 25q-45 26 -45 66z M221 305h55q62 0 156 150q82 137 82 176q0 20 -37 20q-55 -39 -145 -141q-111 -126 -111 -170v-35zM492 926q-34 40 40 149q62 84 113 127q64 52 98 12q46 -52 9 -86q-93 -72 -148 -118q-3 -4 -19 -35.5t-20 -34.5l-43 -37l-5 3q-5 3 -12 8t-13 12z" />
<glyph unicode="&#xe2;" horiz-adv-x="874" d="M84 279q0 100 295 413q33 33 70 41q53 12 59 15q2 2 14 15.5t24.5 24.5t20.5 11q15 0 68 -35q0 -41 8 -96q22 -83 84 -252q11 -33 59 -105q43 -64 43 -75q0 -27 -20 -50q-24 -30 -59 -39q-41 56 -93 181l-75 176l-176 -223q-90 -93 -201 -93q-34 0 -76 25q-45 26 -45 66z M221 305h55q62 0 156 150q82 137 82 176q0 20 -37 20q-55 -39 -145 -141q-111 -126 -111 -170v-35zM301 952l16 41q23 19 68 54q43 24 80 53.5t54.5 44.5t23.5 14q4 0 73 -78q71 -77 68 -88q46 -70 -22 -104q-12 4 -58 74q-46 66 -72 69q-17 0 -100 -71t-92 -68 q-50 26 -39 59z" />
<glyph unicode="&#xe3;" horiz-adv-x="874" d="M84 279q0 100 295 413q33 33 70 41q53 12 59 15q2 2 14 15.5t24.5 24.5t20.5 11q15 0 68 -35q0 -41 8 -96q22 -83 84 -252q11 -33 59 -105q43 -64 43 -75q0 -27 -20 -50q-24 -30 -59 -39q-41 56 -93 181l-75 176l-176 -223q-90 -93 -201 -93q-34 0 -76 25q-45 26 -45 66z M221 305h55q62 0 156 150q82 137 82 176q0 20 -37 20q-55 -39 -145 -141q-111 -126 -111 -170v-35zM258 981q0 57 64 115q63 61 96 69q22 6 49 -12q15 -17 59 -94q16 -40 38 -60t41.5 -19t33.5 17q14 15 19 31t4 30v15q15 38 49 17q27 -27 18 -72q-9 -46 -49 -86 q-53 -50 -125 -35q-32 6 -70 80q-51 91 -63 96q-62 -9 -76 -65q-15 -54 -31 -74q-34 -10 -48 1.5t-9 45.5z" />
<glyph unicode="&#xe4;" horiz-adv-x="874" d="M84 279q0 100 295 413q33 33 70 41q53 12 59 15q2 2 14 15.5t24.5 24.5t20.5 11q15 0 68 -35q0 -41 8 -96q22 -83 84 -252q11 -33 59 -105q43 -64 43 -75q0 -27 -20 -50q-24 -30 -59 -39q-41 56 -93 181l-75 176l-176 -223q-90 -93 -201 -93q-34 0 -76 25q-45 26 -45 66z M221 305h55q62 0 156 150q82 137 82 176q0 20 -37 20q-55 -39 -145 -141q-111 -126 -111 -170v-35zM279 1006q-1 35 23 58.5t60 25.5q113 -24 113 -66q1 -34 -29.5 -62t-66.5 -30q-24 0 -64 29q-36 29 -36 45zM592 1001q-1 35 23.5 58.5t60.5 25.5q112 -24 112 -65 q1 -34 -29.5 -62t-66.5 -30q-24 0 -63 28q-37 30 -37 45z" />
<glyph unicode="&#xe5;" horiz-adv-x="874" d="M84 279q0 100 295 413q33 33 70 41q53 12 59 15q2 2 14 15.5t24.5 24.5t20.5 11q15 0 68 -35q0 -41 8 -96q22 -83 84 -252q11 -33 59 -105q43 -64 43 -75q0 -27 -20 -50q-24 -30 -59 -39q-41 56 -93 181l-75 176l-176 -223q-90 -93 -201 -93q-34 0 -76 25q-45 26 -45 66z M221 305h55q62 0 156 150q82 137 82 176q0 20 -37 20q-55 -39 -145 -141q-111 -126 -111 -170v-35zM330 1112q0 115 82 197t206 82q59 0 130 -109q65 -95 65 -139q0 -98 -106 -176q-91 -70 -168 -70q-88 0 -152 70q-57 63 -57 145zM434 1128q0 -35 23 -79q27 -58 82 -58 q35 0 92 45q65 53 65 103q0 37 -32 80q-40 55 -89 55q-50 0 -96 -49q-45 -45 -45 -97z" />
<glyph unicode="&#xe6;" horiz-adv-x="899" d="M84 403q0 161 129 299q132 138 297 138q75 0 178 -121q100 -118 100 -189q0 -35 -32 -84q-35 -59 -84 -86v-26q63 -29 73 -29q29 0 93 21q12 -3 12 -27q0 -36 -34.5 -57t-80.5 -21q-43 0 -85 10.5t-68.5 20.5t-30.5 10q-17 0 -102 -43q-84 -41 -150 -41q-77 0 -149 78 q-66 72 -66 147zM188 410q0 -55 48 -91q40 -24 96 -24q73 0 129 33v37q-53 65 -80 157q-24 80 -21 140q-60 -20 -118 -109q-54 -85 -54 -143zM473 578q0 -44 27 -93q37 -59 84 -86q98 98 98 158q0 19 -47 84q-46 64 -78 64t-58 -39t-26 -88z" />
<glyph unicode="&#xe8;" horiz-adv-x="636" d="M49 1049q-38 35 8 86q34 40 99 -13q48 -41 112 -127q75 -110 41 -149q-6 -7 -13 -12t-12 -8l-5 -3l-43 37q-4 3 -20 34.5t-19 35.5q-69 58 -148 119zM63 430q0 -10 13 -26t14 -23q9 -105 6 -166q15 -108 109 -166q65 -39 137 -39q75 0 170 31q124 43 127 115h-45 q-31 -11 -92 -31q-95 -31 -156 -31q-81 0 -125 86q-33 62 -33 135q0 43 2 45q10 19 62 19q39 0 73.5 -4.5t56 -10.5t37.5 -12.5t24 -11t10 -4.5q24 0 47.5 36t23.5 64q0 71 -80 160q-87 96 -172 96q-76 0 -96 -45l-53 -125q-9 -15 -41 -47q-19 -19 -19 -45zM221 510 q0 13 27.5 40.5t46.5 27.5q31 0 94 -91q-72 -20 -156 -4q-12 3 -12 27z" />
<glyph unicode="&#xe9;" horiz-adv-x="636" d="M63 430q0 26 19 45q32 32 41 47l53 125q20 45 96 45q85 0 172 -96q80 -89 80 -160q0 -28 -23.5 -64t-47.5 -36q-2 0 -10 4.5t-24 11t-37.5 12.5t-56 10.5t-73.5 4.5q-52 0 -62 -19q-2 -2 -2 -45q0 -73 33 -135q44 -86 125 -86q61 0 156 31l92 31h45q-3 -72 -127 -115 q-95 -31 -170 -31q-72 0 -137 39q-94 58 -109 166q3 61 -6 166q-1 7 -14 23t-13 26zM221 510q0 -24 12 -27q84 -16 156 4q-63 91 -94 91q-19 0 -46.5 -27.5t-27.5 -40.5zM272 831q-34 40 41 150q62 84 113 127q64 52 98 12q46 -51 8 -86q-67 -52 -147 -119q-3 -4 -19 -35 t-20 -34l-43 -37l-5 3q-5 2 -12.5 7t-13.5 12z" />
<glyph unicode="&#xea;" horiz-adv-x="636" d="M63 430q0 26 19 45q32 32 41 47l53 125q20 45 96 45q85 0 172 -96q80 -89 80 -160q0 -28 -23.5 -64t-47.5 -36q-2 0 -10 4.5t-24 11t-37.5 12.5t-56 10.5t-73.5 4.5q-52 0 -62 -19q-2 -2 -2 -45q0 -73 33 -135q44 -86 125 -86q61 0 156 31l92 31h45q-3 -72 -127 -115 q-95 -31 -170 -31q-72 0 -137 39q-94 58 -109 166q3 61 -6 166q-1 7 -14 23t-13 26zM104 844l17 41q22 18 67 53q43 24 80 53.5t54.5 45t23.5 14.5q5 0 74 -78q70 -76 67 -88q47 -71 -22 -105q-11 4 -57 74q-46 67 -72 70q-16 0 -100 -72q-83 -71 -93 -68q-51 26 -39 60z M221 510q0 -24 12 -27q84 -16 156 4q-63 91 -94 91q-19 0 -46.5 -27.5t-27.5 -40.5z" />
<glyph unicode="&#xeb;" horiz-adv-x="636" d="M33 864q-1 35 23.5 58.5t60.5 25.5q112 -24 112 -65q1 -34 -29.5 -62t-66.5 -30q-24 0 -63 28q-37 30 -37 45zM63 430q0 26 19 45q32 32 41 47l53 125q20 45 96 45q85 0 172 -96q80 -89 80 -160q0 -28 -23.5 -64t-47.5 -36q-2 0 -10 4.5t-24 11t-37.5 12.5t-56 10.5 t-73.5 4.5q-52 0 -62 -19q-2 -2 -2 -45q0 -73 33 -135q44 -86 125 -86q61 0 156 31l92 31h45q-3 -72 -127 -115q-95 -31 -170 -31q-72 0 -137 39q-94 58 -109 166q3 61 -6 166q-1 7 -14 23t-13 26zM221 510q0 -24 12 -27q84 -16 156 4q-63 91 -94 91q-19 0 -46.5 -27.5 t-27.5 -40.5zM346 860q-1 35 23.5 58.5t60.5 25.5q113 -24 113 -65q1 -34 -30 -62.5t-67 -30.5q-23 0 -63 29q-37 30 -37 45z" />
<glyph unicode="&#xec;" horiz-adv-x="387" d="M6 887q-38 35 8 86q34 41 99 -12q48 -41 112 -127q75 -110 41 -150q-6 -7 -13 -12t-12 -8l-5 -2l-43 36q-4 3 -20 34.5t-19 35.5q-69 58 -148 119zM168 403q0 -112 35 -346q1 -17 22 -37t35 -20q35 35 35 74q0 -1 0 2t-1 11t-1.5 18.5t-2 28t-3.5 36.5q-3 88 0 192 q0 9 9 42.5t9 41.5q0 91 -69 91q-68 0 -68 -134z" />
<glyph unicode="&#xed;" horiz-adv-x="387" d="M168 403q0 134 68 134q69 0 69 -91q0 -8 -9 -41.5t-9 -42.5q-3 -104 0 -192q2 -19 3.5 -36.5t2 -28t1.5 -18.5t1 -11t0 -2q0 -39 -35 -74q-14 0 -35 20t-22 37q-35 234 -35 346zM211 692q-34 40 41 150q62 84 113 127q64 52 98 12q46 -51 8 -86q-67 -52 -147 -119 q-3 -4 -19 -35t-20 -34l-43 -37l-5 2q-5 3 -12.5 8t-13.5 12z" />
<glyph unicode="&#xee;" horiz-adv-x="387" d="M41 713l16 41q23 18 68 53q43 24 80 53.5t54.5 45t23.5 14.5q4 0 73 -78q71 -77 68 -88q47 -71 -23 -105q-11 3 -57 74q-46 67 -72 70q-16 0 -100 -72q-83 -71 -92 -68q-51 26 -39 60zM168 403q0 134 68 134q69 0 69 -91q0 -8 -9 -41.5t-9 -42.5q-3 -104 0 -192 q2 -19 3.5 -36.5t2 -28t1.5 -18.5t1 -11t0 -2q0 -39 -35 -74q-14 0 -35 20t-22 37q-35 234 -35 346z" />
<glyph unicode="&#xef;" horiz-adv-x="387" d="M-2 721q-1 35 23.5 58.5t60.5 25.5q113 -24 113 -66q1 -34 -30 -62t-67 -30q-23 0 -63 29q-37 30 -37 45zM168 403q0 134 68 134q69 0 69 -91q0 -8 -9 -41.5t-9 -42.5q-3 -104 0 -192q2 -19 3.5 -36.5t2 -28t1.5 -18.5t1 -11t0 -2q0 -39 -35 -74q-14 0 -35 20t-22 37 q-35 234 -35 346zM311 717q-1 35 23.5 58.5t60.5 25.5q113 -24 113 -66q1 -34 -29.5 -62t-66.5 -30q-24 0 -64 29q-37 30 -37 45z" />
<glyph unicode="&#xf1;" horiz-adv-x="741" d="M74 514q0 12 3 22t12.5 20t13.5 14t20 15t18 13q56 -24 56 -98v-35q-2 -14 -2 -35q0 -39 12 -63l121 141q84 97 151 100q45 -42 150 -266q96 -209 96 -231v-56q-24 -24 -43 -24q-39 0 -115 180q-85 204 -121 252q-77 -53 -147 -172q-94 -164 -104 -176q-31 14 -76 37 q-3 60 -25 213q-20 137 -20 149zM88 823q0 57 64 115q65 62 96 70q21 6 49 -13q15 -17 59 -94q16 -40 38 -59.5t41.5 -18.5t33.5 17q14 15 19 31t4 30v14q15 38 49 17q27 -27 18 -72q-9 -46 -49 -86q-53 -50 -125 -35q-32 6 -70 80q-51 91 -63 96q-62 -9 -76 -65 q-15 -54 -31 -74q-34 -10 -48 1.5t-9 45.5z" />
<glyph unicode="&#xf2;" horiz-adv-x="647" d="M63 362q0 -204 179 -204q131 0 223 92q92 95 92 227q0 88 -45 162q-59 96 -166 96q-118 0 -207 -139q-76 -119 -76 -234zM117 1073q-38 35 8 86q34 40 98 -12q51 -43 113 -127q75 -110 41 -150q-6 -7 -13.5 -12t-12.5 -8l-5 -2l-43 37q-4 3 -20 34t-19 35 q-80 67 -147 119zM158 305q-15 66 41 178q64 125 153 125q101 0 101 -94q0 -87 -54 -166q-59 -86 -151 -86q-41 0 -90 43z" />
<glyph unicode="&#xf3;" horiz-adv-x="647" d="M63 362q0 115 76 234q89 139 207 139q107 0 166 -96q45 -74 45 -162q0 -132 -92 -227q-92 -92 -223 -92q-179 0 -179 204zM158 305q49 -43 90 -43q92 0 151 86q54 79 54 166q0 94 -101 94q-89 0 -153 -125q-56 -112 -41 -178zM322 844q-34 40 40 149q62 84 113 127 q64 52 98 13q46 -52 9 -86q-79 -61 -148 -119q-3 -4 -19 -35.5t-20 -34.5l-43 -37l-5 3q-5 3 -12 8t-13 12z" />
<glyph unicode="&#xf4;" horiz-adv-x="647" d="M63 362q0 115 76 234q89 139 207 139q107 0 166 -96q45 -74 45 -162q0 -132 -92 -227q-92 -92 -223 -92q-179 0 -179 204zM133 885l17 41q22 18 67 53q43 24 80 53.5t54.5 45t23.5 14.5q5 0 74 -78q70 -76 67 -88q47 -71 -22 -105q-12 4 -58 74q-46 67 -71 70 q-17 0 -101 -72q-83 -71 -92 -68q-51 26 -39 60zM158 305q49 -43 90 -43q92 0 151 86q54 79 54 166q0 94 -101 94q-89 0 -153 -125q-56 -112 -41 -178z" />
<glyph unicode="&#xf5;" horiz-adv-x="647" d="M63 362q0 115 76 234q89 139 207 139q107 0 166 -96q45 -74 45 -162q0 -132 -92 -227q-92 -92 -223 -92q-179 0 -179 204zM133 897q0 57 64 115q63 61 96 69q22 6 49 -12q15 -17 59 -94q16 -40 38 -60t41.5 -19t33.5 17q14 15 19 31t5 30l-1 15q15 38 49 17 q27 -27 18 -72q-9 -46 -49 -86q-53 -50 -125 -35q-32 6 -70 80q-51 91 -63 96q-62 -9 -76 -65q-15 -54 -31 -74q-34 -10 -48 1.5t-9 45.5zM158 305q49 -43 90 -43q92 0 151 86q54 79 54 166q0 94 -101 94q-89 0 -153 -125q-56 -112 -41 -178z" />
<glyph unicode="&#xf6;" horiz-adv-x="647" d="M63 362q0 115 76 234q89 139 207 139q107 0 166 -96q45 -74 45 -162q0 -132 -92 -227q-92 -92 -223 -92q-179 0 -179 204zM96 905q-1 35 23.5 58.5t60.5 25.5q113 -24 113 -65q1 -34 -29.5 -62.5t-66.5 -30.5q-24 0 -64 29q-37 30 -37 45zM158 305q49 -43 90 -43 q92 0 151 86q54 79 54 166q0 94 -101 94q-89 0 -153 -125q-56 -112 -41 -178zM410 901q-1 35 23.5 58.5t60.5 25.5q112 -24 112 -65q1 -34 -29.5 -62.5t-66.5 -30.5q-24 0 -64 29q-36 29 -36 45z" />
<glyph unicode="&#xf8;" horiz-adv-x="751" d="M104 330q0 98 74 172q76 76 158 76q9 0 24 -6.5t23 -6.5q77 0 123 64l67 121q42 68 105 77q27 -21 27 -57q0 -28 -60 -113q-57 -80 -57 -92q0 5 30 -71q33 -73 33 -107q0 -102 -133 -194q-69 -52 -153 -82q-71 -27 -132 -287q3 -18 -4 -76q-1 0 -18 -6t-27 -6 q-47 0 -47 57q0 59 105 326q-138 85 -138 211zM211 324q0 -74 80 -95q108 163 108 205q0 24 -12 27h-76q-28 0 -65 -55q-35 -53 -35 -82zM410 242q43 10 84 59l53 80l-15 59q-61 -76 -122 -198z" />
<glyph unicode="&#xf9;" horiz-adv-x="780" d="M74 487q0 -93 47 -202q65 -148 174 -148q78 0 217 262q4 0 18.5 -5t18.5 -5q15 -96 45 -190q59 -179 125 -179q14 0 30 6.5t17 6.5v57q0 14 -49 96q-55 100 -66 138q-9 48 -18 149q-8 86 -17 121q-18 57 -65 57q-16 0 -53 -16q-18 -43 -76 -195q-76 -168 -143 -168 q-42 0 -80 74q-31 67 -31 111q0 15 20 59q23 54 23 62q0 6 -27 40q-23 33 -43 33q-53 0 -65 -76q-2 -10 -2 -88zM109 950q-38 35 8 86q34 40 98 -12q51 -43 113 -127q75 -110 41 -149q-6 -7 -13.5 -12t-12.5 -8l-5 -3l-43 37q-4 3 -20 34t-19 35q-80 67 -147 119z" />
<glyph unicode="&#xfa;" horiz-adv-x="780" d="M74 487q0 78 2 88q12 76 65 76q20 0 43 -33q27 -34 27 -40q0 -8 -23 -62q-20 -44 -20 -59q0 -44 31 -111q38 -74 80 -74q67 0 143 168q58 152 76 195q37 16 53 16q47 0 65 -57q9 -35 17 -121q9 -101 18 -149q11 -38 66 -138q49 -82 49 -96v-57q-1 0 -17 -6.5t-30 -6.5 q-66 0 -125 179q-30 93 -45 190q-4 0 -18.5 5t-18.5 5q-139 -262 -217 -262q-109 0 -174 148q-47 109 -47 202zM328 735q-34 40 41 150q64 86 112 127q65 52 99 12q46 -51 8 -86q-79 -61 -148 -119q-3 -4 -19 -35t-20 -34l-43 -37l-5 3q-5 2 -12 7t-13 12z" />
<glyph unicode="&#xfb;" horiz-adv-x="780" d="M74 487q0 78 2 88q12 76 65 76q20 0 43 -33q27 -34 27 -40q0 -8 -23 -62q-20 -44 -20 -59q0 -44 31 -111q38 -74 80 -74q67 0 143 168q58 152 76 195q37 16 53 16q47 0 65 -57q9 -35 17 -121q9 -101 18 -149q11 -38 66 -138q49 -82 49 -96v-57q-1 0 -17 -6.5t-30 -6.5 q-66 0 -125 179q-30 93 -45 190q-4 0 -18.5 5t-18.5 5q-139 -262 -217 -262q-109 0 -174 148q-47 109 -47 202zM162 850l16 41q23 18 68 53q43 24 79.5 53.5t54 45t23.5 14.5q5 0 74 -78q71 -77 68 -88q47 -71 -23 -105q-10 4 -57 74q-46 67 -72 70q-16 0 -100 -72 q-82 -70 -92 -67q-50 26 -39 59z" />
<glyph unicode="&#xfc;" horiz-adv-x="780" d="M74 487q0 78 2 88q12 76 65 76q20 0 43 -33q27 -34 27 -40q0 -8 -23 -62q-20 -44 -20 -59q0 -44 31 -111q38 -74 80 -74q67 0 143 168q58 152 76 195q37 16 53 16q47 0 65 -57q9 -35 17 -121q9 -101 18 -149q11 -38 66 -138q49 -82 49 -96v-57q-1 0 -17 -6.5t-30 -6.5 q-66 0 -125 179q-30 93 -45 190q-4 0 -18.5 5t-18.5 5q-139 -262 -217 -262q-109 0 -174 148q-47 109 -47 202zM98 868q-1 35 23.5 58.5t60.5 25.5q113 -24 113 -65q1 -34 -29.5 -62t-66.5 -30q-25 0 -64 28q-37 30 -37 45zM412 864q-1 35 23.5 58.5t60.5 25.5 q112 -24 112 -65q1 -34 -29.5 -62t-66.5 -30q-24 0 -63 28q-37 30 -37 45z" />
<glyph unicode="&#xfd;" horiz-adv-x="720" d="M41 -459l2 3q2 4 6.5 12.5t10.5 20t15 29.5l18.5 37t23.5 46.5t28 54.5q114 225 148 401q-80 64 -154 166q-88 119 -88 197q0 63 53 63q19 0 48 -16l65 -156q46 -98 113 -153q14 20 116 237q79 172 136 172q67 0 67 -57q0 -11 -57 -100q-69 -110 -82 -154l-29 -59 q-20 -39 -20 -60q0 -10 2 -14q27 -52 24 -70q-54 -3 -137 -174q0 -1 -15 -34t-49.5 -110.5t-74.5 -166.5q-73 -166 -102 -166q-8 0 -28.5 6t-27.5 6l-3 6q-3 7 -6 16t-3 17zM319 766q-34 39 41 149q62 84 113 127q64 52 98 13q46 -52 9 -86q-79 -61 -148 -119 q-3 -4 -19 -35.5t-20 -34.5l-43 -37l-5 3q-5 3 -12.5 8t-13.5 12z" />
<glyph unicode="&#xff;" horiz-adv-x="720" d="M41 -459l2 3q2 4 6.5 12.5t10.5 20t15 29.5l18.5 37t23.5 46.5t28 54.5q114 225 148 401q-80 64 -154 166q-88 119 -88 197q0 63 53 63q19 0 48 -16l65 -156q46 -98 113 -153q14 20 116 237q79 172 136 172q67 0 67 -57q0 -11 -57 -100q-69 -110 -82 -154l-29 -59 q-20 -39 -20 -60q0 -10 2 -14q27 -52 24 -70q-54 -3 -137 -174q0 -1 -15 -34t-49.5 -110.5t-74.5 -166.5q-73 -166 -102 -166q-8 0 -28.5 6t-27.5 6l-3 6q-3 7 -6 16t-3 17zM68 844q-1 35 23.5 58.5t60.5 25.5q112 -24 112 -66q1 -34 -29.5 -62t-66.5 -30q-24 0 -64 29 q-36 29 -36 45zM381 840q-1 35 23.5 58.5t60.5 25.5q113 -24 113 -66q1 -34 -30 -62t-67 -30q-23 0 -63 29q-37 30 -37 45z" />
<glyph unicode="&#x2c6;" horiz-adv-x="491" d="M47 1487l16 41q23 18 68 53q43 24 80 53.5t54.5 45t23.5 14.5q4 0 73 -78q71 -77 68 -88q47 -71 -22 -105q-12 4 -58 74q-46 67 -71 70q-17 0 -101 -72q-83 -71 -92 -68q-51 26 -39 60z" />
<glyph unicode="&#x2dc;" horiz-adv-x="561" d="M41 1538q0 58 63 115q63 60 97 69q22 6 49 -12q15 -17 59 -94q16 -40 38 -60t41.5 -19t33.5 17q14 15 18.5 31t3.5 31v14q15 38 50 17q27 -27 18 -72q-9 -46 -49 -86q-53 -50 -125 -35q-32 6 -70 80q-51 91 -63 96q-62 -9 -76 -65q-15 -54 -31 -74q-34 -10 -48 1.5 t-9 45.5z" />
<glyph unicode="&#x2000;" horiz-adv-x="948" />
<glyph unicode="&#x2001;" horiz-adv-x="1896" />
<glyph unicode="&#x2002;" horiz-adv-x="948" />
<glyph unicode="&#x2003;" horiz-adv-x="1896" />
<glyph unicode="&#x2004;" horiz-adv-x="632" />
<glyph unicode="&#x2005;" horiz-adv-x="474" />
<glyph unicode="&#x2006;" horiz-adv-x="316" />
<glyph unicode="&#x2007;" horiz-adv-x="316" />
<glyph unicode="&#x2008;" horiz-adv-x="237" />
<glyph unicode="&#x2009;" horiz-adv-x="379" />
<glyph unicode="&#x200a;" horiz-adv-x="105" />
<glyph unicode="&#x2010;" horiz-adv-x="811" d="M104 608q0 33 35 54q26 20 56 20q8 0 42 -10t42 -10q44 0 170 14q162 18 251 39q35 -38 35 -64q0 -29 -17 -51t-40 -22q-4 0 -13 0.5t-26 1.5t-33 2q-58 6 -69 6q-4 0 -25 -2t-68 -6.5t-96 -8.5q-161 -14 -186 -14q-18 0 -38 17t-20 34z" />
<glyph unicode="&#x2011;" horiz-adv-x="811" d="M104 608q0 33 35 54q26 20 56 20q8 0 42 -10t42 -10q44 0 170 14q162 18 251 39q35 -38 35 -64q0 -29 -17 -51t-40 -22q-4 0 -13 0.5t-26 1.5t-33 2q-58 6 -69 6q-4 0 -25 -2t-68 -6.5t-96 -8.5q-161 -14 -186 -14q-18 0 -38 17t-20 34z" />
<glyph unicode="&#x2012;" horiz-adv-x="811" d="M104 608q0 33 35 54q26 20 56 20q8 0 42 -10t42 -10q44 0 170 14q162 18 251 39q35 -38 35 -64q0 -29 -17 -51t-40 -22q-4 0 -13 0.5t-26 1.5t-33 2q-58 6 -69 6q-4 0 -25 -2t-68 -6.5t-96 -8.5q-161 -14 -186 -14q-18 0 -38 17t-20 34z" />
<glyph unicode="&#x2013;" horiz-adv-x="1204" d="M104 608q0 33 57 54q42 20 91 20q13 0 68 -10t68 -10q71 0 276 14q263 18 407 39q57 -38 57 -64q0 -29 -27.5 -51t-65.5 -22q-6 0 -20.5 0.5t-42 1.5t-53.5 2q-94 6 -112 6q-7 0 -41 -2l-110.5 -6.5t-155.5 -8.5q-261 -14 -302 -14q-29 0 -61.5 17t-32.5 34z" />
<glyph unicode="&#x2014;" horiz-adv-x="2228" d="M104 608q0 33 114 54q84 20 181 20q26 0 136.5 -10t136.5 -10q143 0 552 14q526 18 814 39q114 -38 114 -64q0 -29 -55 -51t-130 -22q-13 0 -42 0.5t-84.5 1.5t-107.5 2q-188 6 -224 6q-13 0 -81 -2t-220.5 -6.5t-311.5 -8.5q-523 -14 -604 -14q-58 0 -123 17t-65 34z " />
<glyph unicode="&#x2018;" horiz-adv-x="286" d="M84 1155q0 115 53 115q64 0 70 -68q-7 -100 -4 -262q0 -15 14 -53q15 -40 12 -51v-78l-5 -3q-5 -3 -13 -6.5t-16 -3.5q-51 0 -86 177q-25 138 -25 233z" />
<glyph unicode="&#x2019;" horiz-adv-x="286" d="M84 1155q0 115 53 115q64 0 70 -68q-7 -100 -4 -262q0 -15 14 -53q15 -40 12 -51v-78l-5 -3q-5 -3 -13 -6.5t-16 -3.5q-51 0 -86 177q-25 138 -25 233z" />
<glyph unicode="&#x201a;" horiz-adv-x="286" d="M84 1155q0 115 53 115q64 0 70 -68q-7 -100 -4 -262q0 -15 14 -53q15 -40 12 -51v-78l-5 -3q-5 -3 -13 -6.5t-16 -3.5q-51 0 -86 177q-25 138 -25 233z" />
<glyph unicode="&#x201c;" horiz-adv-x="630" d="M84 1155q0 115 53 115q64 0 70 -68q-7 -100 -4 -262q0 -15 14 -53q15 -40 12 -51v-78l-5 -3q-5 -3 -13 -6.5t-16 -3.5q-51 0 -86 177q-25 138 -25 233zM367 1098q0 151 73 151q60 0 60 -37q0 -25 -13 -92q-10 -56 -14 -96q-3 -63 39 -143l66 -133h-46q-32 -1 -61 38 t-57 121q-47 130 -47 191z" />
<glyph unicode="&#x201d;" horiz-adv-x="661" d="M84 748q1 7 66 133q41 78 38 143q-5 44 -16 96q-12 61 -12 92q0 37 59 37q74 0 74 -151q0 -66 -45 -191q-29 -82 -58.5 -121.5t-60.5 -37.5h-45zM430 758v78q0 10 12 51q14 38 17 53q3 162 -4 262q6 68 69 68q54 0 54 -115q0 -101 -27 -233q-35 -177 -84 -177 q-14 0 -25 6.5t-12 6.5z" />
<glyph unicode="&#x202f;" horiz-adv-x="379" />
<glyph unicode="&#x205f;" horiz-adv-x="474" />
<glyph unicode="&#xe000;" horiz-adv-x="819" d="M0 0v819h819v-819h-819z" />
</font>
</defs>
</svg>
